<svg xmlns="http://www.w3.org/2000/svg" xmlns:xlink="http://www.w3.org/1999/xlink" width="100" height="100" viewBox="0 0 100 100"><defs><clipPath id="a"><rect width="53.24" height="100" fill="none"/></clipPath></defs><g transform="translate(0 -27)"><rect width="100" height="100" transform="translate(0 27)" fill="none"/><g transform="translate(23.38 27)"><path d="M48.258.308l-.3.051-.318.086-.33.125-.327.171L39.425,5,35.769,7.06,14.789,18.892l-4.18,2.354L3.586,25.211l-.337.206-.325.239-.316.271-.3.292-.289.322-.273.334-.249.359-.235.368-.211.382-.187.389-.166.4-.138.4-.112.405-.081.394-.05.4-.012.389V95.788l.012.366.05.338.081.31.112.271.138.25.166.213.187.174.211.146,3.841,2.169L4.9,99.88,4.711,99.7l-.161-.206-.145-.25-.112-.278-.081-.306-.052-.338-.017-.366V32.926l.017-.389.052-.394.081-.4.112-.4.145-.4.161-.4.185-.387.211-.385.237-.371.247-.357.273-.341.287-.315.3-.29.311-.273.323-.236.337-.209,7.023-3.964,4.185-2.354L39.612,9.226l3.656-2.057,7.554-4.261.337-.169.325-.127.311-.086.3-.049h.289l.266.03.254.074.237.1L49.3.524,49.064.413,48.815.341,48.542.308Z" transform="translate(-0.187 -0.185)" fill="#f89fb5"/><g clip-path="url(#a)"><path d="M47.087,1.4l-.83.215L46,1.753,3.39,26.5l-.958,1.163-.816,1.744-.208,1.365L1.461,95.5l.457.789,1.794,1.042L3.7,97.07V32.883l.155-1.305.635-1.73L5.5,28.284l.958-.965.725-.5,42.1-24.3ZM5.33,99.783a.7.7,0,0,1-.354-.1L.754,97.129l-.418-.617-.251-.738L0,94.93V30.746l.155-1.307.633-1.73L1.8,26.145l.958-.962.727-.505L46.044.185l.75-.174L47.167,0l.706.133.336.142,3.749,2.162a.706.706,0,0,1-.647,1.253l-.523-.151-.825.215-.263.139L7.09,28.643,6.133,29.8l-.816,1.742-.208,1.367.053,64.719.569.869a.7.7,0,0,1-.4,1.282" transform="translate(0 0.001)" fill="#c70211" fill-rule="evenodd"/><path d="M46.9,73.123,5.089,97.263c-1.742,1.006-3.164.185-3.164-1.822V31.286a7.006,7.006,0,0,1,3.164-5.474L11.857,21.9l4.03-2.322L36.1,7.907,39.62,5.875l7.28-4.2c1.739-1.006,3.157-.185,3.157,1.822V67.648A7.009,7.009,0,0,1,46.9,73.123" transform="translate(2.475 1.598)" fill="#f89fb5" fill-rule="evenodd"/><path d="M47.293,73.522h0ZM48.7,2.338a2.282,2.282,0,0,0-1.058.336L5.829,26.821a6.307,6.307,0,0,0-2.8,4.862V95.84A1.6,1.6,0,0,0,3.6,97.271a1.579,1.579,0,0,0,1.527-.222l41.814-24.14a6.293,6.293,0,0,0,2.807-4.862V3.893a1.594,1.594,0,0,0-.571-1.433.954.954,0,0,0-.475-.121M4.074,98.8a2.321,2.321,0,0,1-1.179-.311A2.879,2.879,0,0,1,1.619,95.84V31.683A7.655,7.655,0,0,1,5.128,25.6L46.941,1.461a2.886,2.886,0,0,1,2.935-.222,2.886,2.886,0,0,1,1.282,2.654V68.047a7.667,7.667,0,0,1-3.516,6.085L5.829,98.272a3.56,3.56,0,0,1-1.755.528" transform="translate(2.082 1.201)" fill="#c70211" fill-rule="evenodd"/><path d="M4.457,26.321V87.406L42.508,65.44V4.362Q23.479,15.337,4.457,26.321" transform="translate(5.731 5.609)" fill="#fff" fill-rule="evenodd"/><path d="M5.558,27.131V86.586L42.2,65.434V5.972ZM4.852,88.509a.656.656,0,0,1-.35-.1.694.694,0,0,1-.352-.61V26.718a.691.691,0,0,1,.352-.6L42.549,4.148a.7.7,0,0,1,1.054.61V65.836a.707.707,0,0,1-.347.61L5.2,88.413a.664.664,0,0,1-.352.1" transform="translate(5.336 5.213)" fill="#c70211" fill-rule="evenodd"/><path d="M11.441,21.7V15.437Q18.429,11.4,25.419,7.364v6.263Q18.428,17.662,11.441,21.7m16.044-7.223V4.134L9.375,14.591V24.921Z" transform="translate(12.054 5.316)" fill="#fff" fill-rule="evenodd"/><path d="M12.541,16.235v4.636l12.569-7.26V8.978Zm-.706,6.558a.687.687,0,0,1-.352-.1.714.714,0,0,1-.357-.61V15.828a.711.711,0,0,1,.357-.61L25.458,7.145a.724.724,0,0,1,.709,0,.7.7,0,0,1,.352.61v6.263a.7.7,0,0,1-.352.606L12.189,22.7a.683.683,0,0,1-.354.1m16.044-7.929h0Zm-17.4.526,16.7-9.639v8.706L10.477,24.1ZM9.769,26.021a.711.711,0,0,1-.347-.1.7.7,0,0,1-.354-.613V14.983a.7.7,0,0,1,.354-.61L27.531,3.917a.735.735,0,0,1,.7,0,.7.7,0,0,1,.352.61V14.864a.7.7,0,0,1-.352.606L10.123,25.925a.71.71,0,0,1-.354.1" transform="translate(11.658 4.923)" fill="#c70211" fill-rule="evenodd"/><path d="M11.6,15.877,29.714,5.419l-2.48-1.429L25.75,3.134,7.64,13.589Z" transform="translate(9.824 4.03)" fill="#fff" fill-rule="evenodd"/><path d="M9.443,13.987,12,15.461,28.7,5.817,26.147,4.345ZM12,16.981a.733.733,0,0,1-.347-.094L7.69,14.592a.7.7,0,0,1-.359-.606.706.706,0,0,1,.359-.61L25.8,2.919a.7.7,0,0,1,.7,0l3.966,2.29a.705.705,0,0,1,0,1.221L12.355,16.887a.732.732,0,0,1-.354.094" transform="translate(9.426 3.633)" fill="#c70211" fill-rule="evenodd"/><path d="M4.933,83.548,1.23,81.41l-.2-.144-.178-.174-.162-.21-.133-.245-.107-.27-.078-.3-.048-.336-.011-.359V15.212l.011-.384.048-.389.078-.4.107-.4.133-.4.162-.4.178-.384.2-.375.011-.018,3.7,2.137-.011.018-.2.377L4.549,15l-.155.4-.144.4-.1.393-.078.4-.048.391L4,17.35V81.507l.018.359.048.336.078.3.1.274.144.247.155.2.181.181Z" transform="translate(0.398 15.534)" fill="#ef496a" fill-rule="evenodd"/><path d="M1.929,13.453,1.52,14.621l-.112,1.013L1.461,80.36l.457.789,1.794,1.042L3.7,81.928V17.741l.155-1.305.551-1.557Zm3.4,71.188a.659.659,0,0,1-.347-.1L.754,81.987.336,81.37l-.251-.743L0,79.788V15.6L.155,14.3l.633-1.73.224-.414a.684.684,0,0,1,.43-.345.72.72,0,0,1,.551.055L5.7,14a.722.722,0,0,1,.329.43.691.691,0,0,1-.078.533L5.317,16.4l-.208,1.367L5.161,82.49l.569.869a.7.7,0,0,1,.2.953.718.718,0,0,1-.6.329" transform="translate(0 15.143)" fill="#c70211" fill-rule="evenodd"/><path d="M7.64,9.744l1.767,1.019v8.3l2.2,1.266V10L7.64,7.708Z" transform="translate(9.823 9.911)" fill="#f89fb5" fill-rule="evenodd"/><path d="M10.51,19.052l.789.455V10.8L8.744,9.319v.414l1.408.816a.708.708,0,0,1,.359.61ZM12,21.429a.711.711,0,0,1-.347-.1l-2.2-1.269a.706.706,0,0,1-.357-.61V11.566L7.69,10.745a.693.693,0,0,1-.359-.606V8.1A.7.7,0,0,1,7.69,7.5a.685.685,0,0,1,.7,0l3.966,2.286a.7.7,0,0,1,.354.61V20.72a.7.7,0,0,1-.354.613.71.71,0,0,1-.354.1" transform="translate(9.426 9.514)" fill="#c70211" fill-rule="evenodd"/><path d="M15.432,6.817v3.511l2.2,1.481V5.546Z" transform="translate(19.841 7.132)" fill="#fff" fill-rule="evenodd"/><path d="M16.536,10.344l.791.533V7.164l-.791.455Zm1.493,2.562a.684.684,0,0,1-.389-.119L15.434,11.3a.716.716,0,0,1-.311-.578V7.212a.7.7,0,0,1,.359-.613l2.2-1.269a.707.707,0,0,1,.7,0,.7.7,0,0,1,.354.61V12.2a.688.688,0,0,1-.379.617.619.619,0,0,1-.327.085" transform="translate(19.445 6.736)" fill="#c70211" fill-rule="evenodd"/><path d="M10.278,14.432,22.057,7.638l2.2,1.481L10.278,17.188Z" transform="translate(13.215 9.822)" fill="#fff" fill-rule="evenodd"/><path d="M11.383,15.238V16.37l11.948-6.9-.905-.61Zm-.706,3.056a.71.71,0,0,1-.352-.1.717.717,0,0,1-.357-.613V14.831a.7.7,0,0,1,.357-.608l11.783-6.8a.7.7,0,0,1,.745.023l2.2,1.486a.7.7,0,0,1-.041,1.191L11.031,18.2a.705.705,0,0,1-.354.1" transform="translate(12.817 9.424)" fill="#c70211" fill-rule="evenodd"/><path d="M19.137,12.74a5.765,5.765,0,0,0-2.555,4.437,1.413,1.413,0,0,0,.5,1.278,1.405,1.405,0,0,0,1.353-.206,5.746,5.746,0,0,0,2.555-4.437,1.407,1.407,0,0,0-.5-1.275,1.4,1.4,0,0,0-1.358.2m-1.653,7.223a2.223,2.223,0,0,1-1.106-.286,2.72,2.72,0,0,1-1.211-2.5,7.123,7.123,0,0,1,3.271-5.66,2.712,2.712,0,0,1,2.761-.2,2.718,2.718,0,0,1,1.207,2.5,7.123,7.123,0,0,1-3.269,5.66,3.328,3.328,0,0,1-1.653.491" transform="translate(19.501 14.174)" fill="#c70211" fill-rule="evenodd"/><path d="M11.055,33.8a5.786,5.786,0,0,0-2.565,4.439,1.426,1.426,0,0,0,.5,1.28,1.443,1.443,0,0,0,1.36-.2,5.771,5.771,0,0,0,2.565-4.439,1.411,1.411,0,0,0-.505-1.275,1.4,1.4,0,0,0-1.358.2M9.4,41.034a2.245,2.245,0,0,1-1.115-.293,2.722,2.722,0,0,1-1.2-2.5,7.111,7.111,0,0,1,3.269-5.653,2.708,2.708,0,0,1,2.768-.206,2.724,2.724,0,0,1,1.2,2.5,7.112,7.112,0,0,1-3.269,5.655,3.268,3.268,0,0,1-1.653.5" transform="translate(9.11 41.264)" fill="#c70211" fill-rule="evenodd"/><path d="M9.358,53.513a.7.7,0,0,1-.706-.7C8.574,42.525,13.468,37.3,18.2,32.246c4.217-4.5,8.2-8.754,8.469-16.4a.7.7,0,0,1,.546-.661.709.709,0,0,1,.777.35l1.97,3.621a.694.694,0,0,1-.281.951.706.706,0,0,1-.958-.281l-.85-1.573C26.91,25,23.013,29.17,19.228,33.206c-4.546,4.85-9.241,9.87-9.161,19.6a.71.71,0,0,1-.7.706Z" transform="translate(11.123 19.502)" fill="#c70211" fill-rule="evenodd"/><path d="M16.088,20.734a.683.683,0,0,1-.37-.114.7.7,0,0,1-.222-.965l2.617-4.162a.706.706,0,0,1,1.193.757L16.686,20.4a.718.718,0,0,1-.6.329" transform="translate(19.783 19.501)" fill="#c70211" fill-rule="evenodd"/><path d="M9.26,25.825a.739.739,0,0,1-.352-.089.711.711,0,0,1-.261-.965l4.93-8.535a.705.705,0,0,1,1.221.706L9.873,25.48a.711.711,0,0,1-.613.345" transform="translate(11.001 20.426)" fill="#c70211" fill-rule="evenodd"/><path d="M14.232,21.406a.778.778,0,0,1-.352-.087l-4.93-2.846a.709.709,0,0,1,.709-1.227l4.928,2.843a.716.716,0,0,1,.258.965.7.7,0,0,1-.613.352" transform="translate(11.058 22.058)" fill="#c70211" fill-rule="evenodd"/><path d="M13.025,37.738a.706.706,0,0,1-.606-1.054l4.857-8.416a.7.7,0,0,1,1.218.709l-4.857,8.414a.721.721,0,0,1-.613.347" transform="translate(15.846 35.898)" fill="#c70211" fill-rule="evenodd"/><path d="M17.927,33.387a.721.721,0,0,1-.345-.1l-4.857-2.8a.7.7,0,0,1,.7-1.221l4.857,2.8a.706.706,0,0,1-.354,1.317" transform="translate(15.903 37.509)" fill="#c70211" fill-rule="evenodd"/><path d="M17.408,28.673a.655.655,0,0,1-.352-.1.688.688,0,0,1-.261-.955l3.319-5.758a.706.706,0,0,1,1.221.709l-3.321,5.749a.707.707,0,0,1-.606.354" transform="translate(21.471 27.662)" fill="#c70211" fill-rule="evenodd"/><path d="M20.752,25.7A.761.761,0,0,1,20.4,25.6l-3.324-1.922a.7.7,0,1,1,.706-1.216l3.319,1.915a.7.7,0,0,1,.256.965.716.716,0,0,1-.61.352" transform="translate(21.512 28.763)" fill="#c70211" fill-rule="evenodd"/><path d="M8.1,30.243a.742.742,0,0,1-.352-.1.714.714,0,0,1-.261-.965l3.326-5.749a.7.7,0,0,1,1.216.7L8.709,29.891a.714.714,0,0,1-.613.352" transform="translate(9.504 29.679)" fill="#c70211" fill-rule="evenodd"/><path d="M11.447,27.263a.723.723,0,0,1-.352-.1L7.776,25.249a.7.7,0,0,1-.256-.962.707.707,0,0,1,.958-.258L11.8,25.951a.7.7,0,0,1-.354,1.312" transform="translate(9.543 30.78)" fill="#c70211" fill-rule="evenodd"/></g></g></g></svg>