<svg xmlns="http://www.w3.org/2000/svg" xmlns:xlink="http://www.w3.org/1999/xlink" width="100" height="100" viewBox="0 0 100 100"><defs><clipPath id="a"><rect width="67.451" height="100" fill="none"/></clipPath></defs><g transform="translate(0 -24)"><rect width="100" height="100" transform="translate(0 24)" fill="none"/><g transform="translate(16.274 24)" clip-path="url(#a)"><path d="M8.911,89.834,2.021,85.86c-1.2-.987-1.266-1.6-1.412-3.1L.627,42.242l6.889,3.981L7.5,86.74c.146,1.5.21,2.113,1.413,3.094" transform="translate(0.131 9.089)" fill="#fff" fill-rule="evenodd"/><path d="M1.5,43.674V82.892c.126,1.343.152,1.726,1.12,2.522l4.373,2.515c-.045-.3-.062-.625-.1-.994L6.91,46.788ZM9.042,90.71a.844.844,0,0,1-.383-.095l-6.889-3.98C.275,85.425.147,84.592,0,82.962L.019,42.375a.734.734,0,0,1,.363-.65.8.8,0,0,1,.757,0l6.884,3.981a.749.749,0,0,1,.382.649L8.387,86.871c.126,1.337.146,1.718,1.119,2.514a.753.753,0,0,1,.147,1.006.745.745,0,0,1-.611.318" transform="translate(0 8.958)" fill="#c70211" fill-rule="evenodd"/><path d="M7.513,55.181.624,51.2V38.072a10.6,10.6,0,0,1,4.8-8.3L54.894,1.243C56.269.612,56.835.369,58.275.917l6.884,3.974c-1.433-.542-2.006-.3-3.382.331L12.307,33.754a10.593,10.593,0,0,0-4.794,8.3Z" transform="translate(0.134 0.131)" fill="#ef496a" fill-rule="evenodd"/><path d="M1.494,50.9,6.9,54.015V42.183a11.223,11.223,0,0,1,5.133-8.928L61.532,4.7c.356-.166.674-.311.967-.427L58.023,1.7c-1.057-.389-1.394-.237-2.681.356L5.932,30.557a9.722,9.722,0,0,0-4.414,7.684Zm6.15,5.165a.81.81,0,0,1-.382-.107L.379,51.983a.733.733,0,0,1-.363-.65V38.2a11.232,11.232,0,0,1,5.132-8.927L54.642.724C56.189.011,56.991-.288,58.679.348L65.67,4.374a.74.74,0,0,1,.293.969.728.728,0,0,1-.928.382c-1.159-.441-1.515-.281-2.808.305L12.82,34.536A9.716,9.716,0,0,0,8.4,42.214v13.1a.748.748,0,0,1-.382.648.823.823,0,0,1-.377.1" transform="translate(0.003 0)" fill="#c70211" fill-rule="evenodd"/><path d="M11.087,33.053,60.557,4.52c2.642-1.521,4.8-.279,4.8,2.771l-.019,13.117L6.293,54.48V41.35a10.612,10.612,0,0,1,4.794-8.3" transform="translate(1.354 0.832)" fill="#ef496a" fill-rule="evenodd"/><path d="M11.6,33.836a9.942,9.942,0,0,0-4.418,7.647V53.316L64.725,20.107V7.426a2.637,2.637,0,0,0-1.038-2.453,2.645,2.645,0,0,0-2.618.332ZM6.424,55.365a.81.81,0,0,1-.382-.107.725.725,0,0,1-.357-.643V41.484a11.436,11.436,0,0,1,5.177-8.946L60.312,4a4.064,4.064,0,0,1,4.138-.331,4.1,4.1,0,0,1,1.778,3.751V20.541a.741.741,0,0,1-.383.643L6.8,55.263a.823.823,0,0,1-.377.1" transform="translate(1.223 0.699)" fill="#c70211" fill-rule="evenodd"/><path d="M65.336,17.479V58a10.6,10.6,0,0,1-4.8,8.3C42.4,76.765,29.213,84.363,11.072,94.832c-2.642,1.52-4.794.279-4.794-2.763L6.3,51.552Z" transform="translate(1.351 3.761)" fill="#fff" fill-rule="evenodd"/><path d="M7.186,52.118,7.166,92.2A2.635,2.635,0,0,0,8.2,94.646a2.635,2.635,0,0,0,2.618-.326L60.29,65.782a9.934,9.934,0,0,0,4.42-7.648L64.728,18.9ZM9.07,96.371a3.228,3.228,0,0,1-1.631-.428A4.078,4.078,0,0,1,5.669,92.2l.019-40.517a.741.741,0,0,1,.357-.65L65.11,16.962a.737.737,0,0,1,.739,0,.764.764,0,0,1,.383.65L66.2,58.133a11.452,11.452,0,0,1-5.15,8.947L11.578,95.613a5.084,5.084,0,0,1-2.508.758" transform="translate(1.22 3.628)" fill="#c70211" fill-rule="evenodd"/><path d="M36.547,18.546c1.293-.739,2.325-.14,2.325,1.337a5.093,5.093,0,0,1-2.325,4.006c-1.266.733-2.305.14-2.305-1.337a5.123,5.123,0,0,1,2.305-4.006" transform="translate(7.368 3.922)" fill="#fff" fill-rule="evenodd"/><path d="M36.681,18.679h0Zm1.04.434a1.371,1.371,0,0,0-.656.216,4.337,4.337,0,0,0-1.949,3.355.969.969,0,0,0,.318.847,1,1,0,0,0,.892-.158,4.392,4.392,0,0,0,1.916-3.358c0-.427-.1-.742-.293-.852a.517.517,0,0,0-.228-.051m-2.077,5.971a1.99,1.99,0,0,1-.969-.254,2.4,2.4,0,0,1-1.056-2.146,5.84,5.84,0,0,1,2.706-4.655,2.377,2.377,0,0,1,2.388-.164,2.4,2.4,0,0,1,1.03,2.151,5.806,5.806,0,0,1-2.679,4.651,2.832,2.832,0,0,1-1.421.418" transform="translate(7.235 3.79)" fill="#c70211" fill-rule="evenodd"/><path d="M43.121,14.758c1.267-.733,2.305-.135,2.305,1.337A5.118,5.118,0,0,1,43.121,20.1c-1.286.739-2.323.14-2.323-1.338a5.1,5.1,0,0,1,2.323-4" transform="translate(8.779 3.108)" fill="#fff" fill-rule="evenodd"/><path d="M43.252,14.891m1.012.433a1.487,1.487,0,0,0-.655.216,4.416,4.416,0,0,0-1.943,3.355.984.984,0,0,0,.318.853c.192.109.51.045.886-.165a4.346,4.346,0,0,0,1.942-3.355.985.985,0,0,0-.312-.847.42.42,0,0,0-.236-.057M42.2,21.295a1.9,1.9,0,0,1-.967-.254,2.372,2.372,0,0,1-1.039-2.146,5.866,5.866,0,0,1,2.682-4.648,2.375,2.375,0,0,1,2.388-.165,2.4,2.4,0,0,1,1.056,2.146,5.837,5.837,0,0,1-2.705,4.654,2.8,2.8,0,0,1-1.414.413" transform="translate(8.648 2.976)" fill="#c70211" fill-rule="evenodd"/><path d="M49.677,10.975c1.267-.738,2.3-.14,2.3,1.338a5.12,5.12,0,0,1-2.3,4c-1.287.739-2.323.141-2.323-1.337a5.1,5.1,0,0,1,2.323-4.005" transform="translate(10.19 2.293)" fill="#fff" fill-rule="evenodd"/><path d="M50.822,11.54a1.405,1.405,0,0,0-.656.216,4.385,4.385,0,0,0-1.924,3.355c0,.42.108.746.3.853a1,1,0,0,0,.883-.165,4.344,4.344,0,0,0,1.943-3.355,1.012,1.012,0,0,0-.312-.854.5.5,0,0,0-.235-.05M48.77,17.513a1.881,1.881,0,0,1-.968-.255,2.334,2.334,0,0,1-1.056-2.146,5.891,5.891,0,0,1,2.679-4.655,2.364,2.364,0,0,1,2.389-.158,2.347,2.347,0,0,1,1.057,2.146A5.852,5.852,0,0,1,50.166,17.1a2.781,2.781,0,0,1-1.4.414" transform="translate(10.059 2.161)" fill="#c70211" fill-rule="evenodd"/><path d="M21.52,55.358V53.217l9.844-5.692v2.139Z" transform="translate(4.631 10.226)" fill="#ef496a" fill-rule="evenodd"/><path d="M22.394,53.783v.407l8.368-4.825v-.41Zm-.739,2.451a.8.8,0,0,1-.382-.1.763.763,0,0,1-.383-.649v-2.14a.765.765,0,0,1,.383-.65l9.862-5.686a.722.722,0,0,1,.746,0,.749.749,0,0,1,.375.643V49.8a.758.758,0,0,1-.375.65l-9.87,5.686a.639.639,0,0,1-.357.1" transform="translate(4.495 10.094)" fill="#c70211" fill-rule="evenodd"/><path d="M12.461,59.656V56.339l7.119-7.36-7.119.9V46.591l10.208-.79v2.814Z" transform="translate(2.681 9.855)" fill="#ef496a" fill-rule="evenodd"/><path d="M13.34,56.777v1.1l8.724-9.425V46.742l-8.724.668v1.752l6.291-.791a.747.747,0,0,1,.764.408.764.764,0,0,1-.146.853ZM12.6,60.534a.775.775,0,0,1-.273-.051.743.743,0,0,1-.485-.694V56.472a.839.839,0,0,1,.211-.523l5.641-5.826-5.005.629a.753.753,0,0,1-.592-.177.827.827,0,0,1-.255-.567V46.724a.766.766,0,0,1,.7-.752l10.222-.784a.675.675,0,0,1,.547.2.691.691,0,0,1,.254.547v2.816a.75.75,0,0,1-.21.509l-10.2,11.035a.764.764,0,0,1-.554.242" transform="translate(2.547 9.722)" fill="#c70211" fill-rule="evenodd"/></g></g></svg>