<svg xmlns="http://www.w3.org/2000/svg" xmlns:xlink="http://www.w3.org/1999/xlink" width="100" height="100.427" viewBox="0 0 100 100.427"><defs><clipPath id="a"><rect width="84.801" height="100.427" fill="none"/></clipPath></defs><g transform="translate(0 -18)"><rect width="100" height="100" transform="translate(0 18)" fill="none"/><g transform="translate(7.6 18)" clip-path="url(#a)"><path d="M30.195,51.22c0,14.381-29.117,14.493-29.117.1V26.155a6.083,6.083,0,0,0,.189.808,6.406,6.406,0,0,0,1.1,1.937,13.361,13.361,0,0,0,6.472,3.933c5.105,1.546,11.818,1.277,16.607-1.216a10.785,10.785,0,0,0,3.76-3.09,6.283,6.283,0,0,0,.9-1.964l.083-.408Z" transform="translate(1.539 37.338)" fill="#ef496a" fill-rule="evenodd"/><path d="M2.26,29.863v21.9C2.26,58.625,9.4,61.754,16,61.754c6.693,0,13.9-3.161,13.9-10.094v-21.8a11.832,11.832,0,0,1-3.668,2.857c-4.683,2.447-11.609,2.957-17.175,1.265a14.47,14.47,0,0,1-6.8-4.122M16,63.25a19.128,19.128,0,0,1-10.38-2.806A10.1,10.1,0,0,1,.765,51.762V26.6a.752.752,0,0,1,.675-.745.733.733,0,0,1,.8.592,5.449,5.449,0,0,0,.192.719,5.9,5.9,0,0,0,.947,1.716A13.02,13.02,0,0,0,9.5,32.553c5.234,1.59,11.669,1.122,16.042-1.156a9.909,9.909,0,0,0,3.5-2.862,5.822,5.822,0,0,0,.8-1.719l.09-.369a.731.731,0,0,1,.8-.59.749.749,0,0,1,.675.738V51.66C31.4,59.625,23.427,63.25,16,63.25" transform="translate(1.092 36.898)" fill="#c70211" fill-rule="evenodd"/><path d="M5.133,22.5c6.428-3.709,16.86-3.709,23.29,0s6.436,9.737,0,13.451-16.862,3.717-23.29,0-6.436-9.737,0-13.451" transform="translate(0.438 28.147)" fill="#f89fb5" fill-rule="evenodd"/><path d="M5.574,22.93h0Zm11.645-2.042a23.041,23.041,0,0,0-11.266,2.69C3.078,25.241,1.5,27.394,1.5,29.659s1.576,4.421,4.45,6.074c6.222,3.593,16.328,3.593,22.555,0,2.867-1.653,4.428-3.816,4.428-6.074s-1.578-4.418-4.455-6.081a22.942,22.942,0,0,0-11.262-2.69m0,19.01A24.644,24.644,0,0,1,5.19,37.031C1.838,35.094,0,32.477,0,29.659s1.857-5.438,5.21-7.377c6.63-3.823,17.408-3.823,24.038,0,3.348,1.94,5.188,4.559,5.188,7.377s-1.84,5.435-5.188,7.373A24.631,24.631,0,0,1,17.219,39.9" transform="translate(0 27.715)" fill="#c70211" fill-rule="evenodd"/><path d="M33.132,24.011v5.426l-.09.452A6.913,6.913,0,0,1,31.7,32.529a15.148,15.148,0,0,1-7.3,4.418C18.657,38.7,11.083,38.392,5.7,35.588A11.868,11.868,0,0,1,1.484,32.1,6.7,6.7,0,0,1,.447,29.888l-.109-.452V24.011a6.523,6.523,0,0,0,.235.9,7.577,7.577,0,0,0,1.58,2.612,16.319,16.319,0,0,0,7.642,4.2c5.61,1.5,12.784,1.134,17.974-1.571a11.5,11.5,0,0,0,4.515-3.911,6.668,6.668,0,0,0,.757-1.782Z" transform="translate(0.483 34.278)" fill="#ef496a" fill-rule="evenodd"/><path d="M1.537,27.86,1.6,30.18a5.78,5.78,0,0,0,.927,1.94,11.27,11.27,0,0,0,3.964,3.248c4.94,2.578,12.218,3.1,18.124,1.3,1.777-.532,5-1.792,6.921-4.166a6.168,6.168,0,0,0,1.2-2.357l.107-.42-.019-1.884a12.9,12.9,0,0,1-4.265,3.418c-5.064,2.644-12.339,3.285-18.52,1.631-1.966-.527-5.617-1.806-8-4.433a4.8,4.8,0,0,1-.5-.6M17.214,39.216A25.163,25.163,0,0,1,5.8,36.691,12.587,12.587,0,0,1,1.3,32.98,7.66,7.66,0,0,1,.143,30.511l-.109-.478V24.454a.739.739,0,0,1,.655-.748.733.733,0,0,1,.821.595c.063.306.109.544.192.816a6.947,6.947,0,0,0,1.437,2.34c2.131,2.343,5.484,3.508,7.3,3.989,5.821,1.566,12.657.973,17.428-1.505A10.713,10.713,0,0,0,32.086,26.3a5.2,5.2,0,0,0,.653-1.568l.107-.435a.733.733,0,0,1,.8-.585.748.748,0,0,1,.675.743v5.428l-.107.6A8.308,8.308,0,0,1,32.7,33.441c-2.156,2.692-5.717,4.078-7.637,4.663a27.273,27.273,0,0,1-7.848,1.112" transform="translate(0.049 33.835)" fill="#c70211" fill-rule="evenodd"/><path d="M40.862,83.083V72.89l-.252-.556a55.775,55.775,0,0,1,5.234,3.117l.063,10.536-.527,1.236-9.771,5.637-4.343-2.406v6.3A2.46,2.46,0,0,0,32.276,99l-5.023-2.9a2.469,2.469,0,0,1-1.029-2.243V42.975l-2.238-1.3a9.725,9.725,0,0,1-4.537-6.7c-1.894-8.487,2.639-18.824,8.1-25.536l5.018,2.906a41.354,41.354,0,0,0-3.986,5.872c-3.561,6.4-7.086,17.928-2.005,24.3.993,1.248,2.7,1.7,4.435,2.852.4.274.252,1.427.252,2.153V89.643L40,84.588a1.868,1.868,0,0,0,.864-1.505M51.689,4.055C48.422,2.174,47.109.977,43.377.312V15.55A3.45,3.45,0,0,1,42.3,18.483L36.245,25.7c-.8.939-1.1.908-2.258.857l-6.2-.284a55.459,55.459,0,0,0,5.338,2.976l6.28.168c1.483.041,1.42-.289,2.386-1.408,1.668-1.959,4.918-5.756,6.081-7.309a2.142,2.142,0,0,0,.529-1.728V3.211a8.555,8.555,0,0,1,3.287.845" transform="translate(27.139 0.445)" fill="#ef496a" fill-rule="evenodd"/><path d="M31.185,27.6a24.828,24.828,0,0,0,2.508,1.362l6.19.153c.818.024.838.024,1.345-.612.126-.151.257-.335.447-.541l.248-.3c1.755-2.063,4.7-5.515,5.783-6.972a1.4,1.4,0,0,0,.408-1.279V3.656a.767.767,0,0,1,.228-.541,13.886,13.886,0,0,0-3.78-1.449V16A4.152,4.152,0,0,1,43.313,19.4l-6.054,7.22a2.7,2.7,0,0,1-2.823,1.131Zm8.861,3.015c-.061,0-.126-.007-.209-.007l-6.29-.17c-.376-.007-.986-.267-4.955-2.634l-.738-.444a.749.749,0,0,1,.4-1.393l6.222.291c1.1.053,1.1.046,1.648-.6l6.035-7.22A2.725,2.725,0,0,0,43.066,16V.758a.742.742,0,0,1,.277-.58A.759.759,0,0,1,43.952.01a17.365,17.365,0,0,1,6.812,2.814c.527.318,1.1.66,1.728,1.037a.726.726,0,0,1,.3.993.755.755,0,0,1-.971.328A7.1,7.1,0,0,0,49.6,4.489V19.416a2.839,2.839,0,0,1-.689,2.175c-1.122,1.5-4.078,4.967-5.848,7.047l-.272.3c-.153.192-.3.357-.405.5a2.424,2.424,0,0,1-2.343,1.182M28.192,10.849,31.9,13a39.525,39.525,0,0,0-3.515,5.3c-2.9,5.2-6.928,16.3-3,23.514l-.568-.335a8.912,8.912,0,0,1-4.178-6.215c-1.794-8.009,2.449-17.918,7.557-24.412m13.119,72.68h0Zm-8.8,6.957,3.542,1.959,9.179-5.307.362-.857-.063-10.043c-.59-.42-2.347-1.413-3.459-2.042v9.4a2.687,2.687,0,0,1-1.226,2.076ZM27.427,44.348V94.3c.046.889.218,1.323.68,1.614l2.869,1.66c0-.114-.024-.231-.024-.337V90.9a.718.718,0,0,0,0-.813V47.967c0-.165.024-.347.024-.539a3.824,3.824,0,0,0-.044-1.1c-.51-.3-1.122-.614-1.711-.915a15.659,15.659,0,0,1-1.794-1.063m5.3,55.852a.785.785,0,0,1-.381-.1l-5.018-2.9a3.233,3.233,0,0,1-1.391-2.857V43.852l-1.886-1.08a10.442,10.442,0,0,1-4.889-7.188c-2.066-9.3,3.168-19.914,8.268-26.172a.758.758,0,0,1,.956-.177L33.4,12.141a.76.76,0,0,1,.364.515.788.788,0,0,1-.153.6,38.18,38.18,0,0,0-3.925,5.763c-2.95,5.3-7.193,17.037-2.066,23.477a7.175,7.175,0,0,0,2.3,1.58,20.488,20.488,0,0,1,1.962,1.114c.68.452.634,1.43.59,2.3a4.061,4.061,0,0,0-.019.476V88.794l7.613-4.4a1.136,1.136,0,0,0,.507-.9V73.5l-.189-.413a.747.747,0,0,1,1.056-.959l.672.374c4.625,2.583,4.71,2.753,4.855,3.071a.776.776,0,0,1,.063.313l.063,10.541a.679.679,0,0,1-.063.3L46.5,87.967a.74.74,0,0,1-.313.35l-9.749,5.637a.736.736,0,0,1-.738,0l-3.251-1.794V97.2c.039.922.192,1.284.692,1.636a.745.745,0,0,1-.42,1.362" transform="translate(26.691 -0.001)" fill="#c70211" fill-rule="evenodd"/><path d="M8.015,44.478,5.573,43.06V10.254l2.462,1.42Z" transform="translate(7.955 14.638)" fill="#ef496a" fill-rule="evenodd"/><path d="M6.759,43.063l.966.563V12.541l-.949-.551Zm1.7,2.6a.627.627,0,0,1-.354-.1L5.64,44.146a.747.747,0,0,1-.381-.648l.027-32.807a.7.7,0,0,1,.374-.648.766.766,0,0,1,.738,0L8.845,11.46a.763.763,0,0,1,.384.651v32.8a.763.763,0,0,1-.384.651.722.722,0,0,1-.381.1" transform="translate(7.508 14.201)" fill="#c70211" fill-rule="evenodd"/><path d="M6.918,21.831l-2.44-1.418L6.015,2.243,8.464,3.66Z" transform="translate(6.393 3.201)" fill="#ef496a" fill-rule="evenodd"/><path d="M5.7,20.448l1.037.592L8.132,4.511,7.1,3.918Zm1.665,2.576a.69.69,0,0,1-.354-.1L4.544,21.5a.764.764,0,0,1-.379-.711L5.721,2.615a.779.779,0,0,1,.384-.6.79.79,0,0,1,.743.019L9.29,3.455a.752.752,0,0,1,.381.706L8.132,22.336a.792.792,0,0,1-.4.6.862.862,0,0,1-.364.087" transform="translate(5.943 2.757)" fill="#c70211" fill-rule="evenodd"/><path d="M7.561,6.107,5.111,4.69l7.2-4.161,2.466,1.418Z" transform="translate(7.297 0.754)" fill="#ef496a" fill-rule="evenodd"/><path d="M7.055,5.129l.954.551,5.712-3.294-.966-.553ZM8.009,7.29a.8.8,0,0,1-.381-.1L5.178,5.77a.738.738,0,0,1,0-1.291L12.391.325a.717.717,0,0,1,.743,0l2.449,1.413a.748.748,0,0,1,0,1.3L8.383,7.2a.836.836,0,0,1-.374.095" transform="translate(6.848 0.315)" fill="#c70211" fill-rule="evenodd"/><path d="M8.143,57.528l.019-32.8-2.68-1.279L7.031,5.274l7.212-4.161,1.52,16.4-2.658,4.362-.027,12.548V54.685Z" transform="translate(7.827 1.588)" fill="#fff" fill-rule="evenodd"/><path d="M6.72,23.43l2.195,1.056a.769.769,0,0,1,.427.677V56.679l3.433-1.988V22.318a.854.854,0,0,1,.109-.393l2.551-4.146L14.046,2.788,8.177,6.165ZM8.577,58.718a.627.627,0,0,1-.354-.1.748.748,0,0,1-.384-.651V25.632L5.6,24.557a.765.765,0,0,1-.42-.736L6.72,5.651A.726.726,0,0,1,7.1,5.063L14.294.9A.754.754,0,0,1,15.013.89a.714.714,0,0,1,.4.595l1.52,16.408a.742.742,0,0,1-.1.456l-2.556,4.178v32.6a.735.735,0,0,1-.384.641L8.958,58.618a.722.722,0,0,1-.381.1" transform="translate(7.394 1.149)" fill="#c70211" fill-rule="evenodd"/><path d="M42.067,85.795l-9.1,5.246c-.486.277-.867.051-.867-.5V80.342a1.9,1.9,0,0,1,.867-1.5l9.1-5.241c.464-.282.864-.056.864.5V84.285a1.978,1.978,0,0,1-.864,1.51m4.387-51.972a1.832,1.832,0,0,1,.362-1.037c.231-.362.442-.437.884-1.1a40.058,40.058,0,0,0,4.435-8.8,28.626,28.626,0,0,0,1.792-9.672c.019-3.8-.954-6.783-2.617-8.785a8.076,8.076,0,0,0-5.884-2.92v15.8a3.263,3.263,0,0,1-.046.787,1.79,1.79,0,0,1-.425.845l-6.705,8.021c-.379.447-.7.867-1.143.847l-6.957-.26c-.318.032-.553-.2-.553-.624V10.639a40.743,40.743,0,0,0-5.865,9.708c-3.185,7.518-3.5,14.959-.84,19.426a8.126,8.126,0,0,0,5,3.84.442.442,0,0,1,.311.231,1.722,1.722,0,0,1,.09.774V95.053A2.438,2.438,0,0,0,29.3,97.3a2.457,2.457,0,0,0,2.471-.235l11.48-6.63a5.89,5.89,0,0,0,1.328-1.068,7.484,7.484,0,0,0,1.139-1.544,8.068,8.068,0,0,0,.762-1.748,6,6,0,0,0,.25-1.692q-.124-23.975-.25-47.952c0-.869,0-1.736-.024-2.607" transform="translate(30.117 2.149)" fill="#fff" fill-rule="evenodd"/><path d="M42.608,74.832l-8.819,5.093a1.184,1.184,0,0,0-.51.852v9.9l8.841-5.1a1.208,1.208,0,0,0,.488-.864Zm-9.6,17.51a1.222,1.222,0,0,1-.592-.16,1.338,1.338,0,0,1-.629-1.214V80.777a2.7,2.7,0,0,1,1.245-2.148l9.089-5.244a1.336,1.336,0,0,1,1.374-.061,1.322,1.322,0,0,1,.609,1.207V84.722a2.652,2.652,0,0,1-1.245,2.156l-9.069,5.248a1.593,1.593,0,0,1-.782.216M30.538,27.237h0ZM28.132,44.773a.243.243,0,0,0,.066.012.253.253,0,0,0-.066-.012M29.29,13.258v14.1a1.409,1.409,0,0,0,.427,1.063,1.113,1.113,0,0,0,.821.306l6.984.267c.762.041,1.265-.556,1.728-1.114l6.732-8.028a2.736,2.736,0,0,0,.57-1.156,4.518,4.518,0,0,0,.063-.954V2.776A7.19,7.19,0,0,1,51.15,5.34c1.629,1.94,2.466,4.809,2.466,8.307a28.971,28.971,0,0,1-1.748,9.424A39.544,39.544,0,0,1,47.526,31.7a6.307,6.307,0,0,1-.51.634,3.371,3.371,0,0,0-.4.459,2.5,2.5,0,0,0-.464,1.481l.255,50.547A5.276,5.276,0,0,1,46.2,86.3a6.8,6.8,0,0,1-.7,1.588,7.558,7.558,0,0,1-1.012,1.406,5.421,5.421,0,0,1-1.182.93L31.822,96.85a1.775,1.775,0,0,1-1.7.24,1.761,1.761,0,0,1-.653-1.6V44.924a1.914,1.914,0,0,0-.192-1.029,1.161,1.161,0,0,0-.757-.573,7.375,7.375,0,0,1-4.542-3.5c-2.549-4.275-2.214-11.461.891-18.751a39.426,39.426,0,0,1,4.426-7.814m1.355,85.456a2.59,2.59,0,0,1-1.289-.333,3.177,3.177,0,0,1-1.393-2.894V44.722a8.866,8.866,0,0,1-5.273-4.134c-2.787-4.676-2.488-12.378.784-20.1a41.444,41.444,0,0,1,5.991-9.89.75.75,0,0,1,.818-.231.732.732,0,0,1,.507.706V27.249l6.775.25a2.638,2.638,0,0,0,.464-.483L44.824,18.9a1.353,1.353,0,0,0,.272-.532,2.692,2.692,0,0,0,.027-.483V1.943a.75.75,0,0,1,.228-.541.729.729,0,0,1,.546-.2,8.733,8.733,0,0,1,6.416,3.185C54.146,6.592,55.12,9.8,55.12,13.647a29.745,29.745,0,0,1-1.838,9.929,40.352,40.352,0,0,1-4.515,8.958,5.507,5.507,0,0,1-.675.835,1.82,1.82,0,0,0-.228.274,1.143,1.143,0,0,0-.211.592v.022L47.9,84.812a6.552,6.552,0,0,1-.272,1.906,9.868,9.868,0,0,1-.821,1.915,9.6,9.6,0,0,1-1.248,1.685,6.381,6.381,0,0,1-1.5,1.2L32.567,98.147a3.9,3.9,0,0,1-1.923.568" transform="translate(29.681 1.712)" fill="#c70211" fill-rule="evenodd"/><path d="M12.219,50.891a.736.736,0,0,1-.738-.753V29.127a.735.735,0,0,1,.738-.745.747.747,0,0,1,.738.745V50.138a.749.749,0,0,1-.738.753" transform="translate(16.39 40.518)" fill="#c70211" fill-rule="evenodd"/><path d="M8.656,55.263a.751.751,0,0,1-.765-.745V30.234a.75.75,0,0,1,1.5,0V54.518a.748.748,0,0,1-.736.745" transform="translate(11.265 42.098)" fill="#c70211" fill-rule="evenodd"/><path d="M10.587,53.544a.754.754,0,0,1-.757-.753V29.87a.748.748,0,1,1,1.5,0V52.791a.75.75,0,0,1-.738.753" transform="translate(14.033 41.571)" fill="#c70211" fill-rule="evenodd"/><path d="M2.8,50.891a.747.747,0,0,1-.736-.753V29.127a.745.745,0,0,1,.736-.745.753.753,0,0,1,.765.745V50.138a.754.754,0,0,1-.765.753" transform="translate(2.941 40.518)" fill="#c70211" fill-rule="evenodd"/><path d="M6.379,55.263a.745.745,0,0,1-.738-.745V30.234a.751.751,0,0,1,1.5,0V54.518a.753.753,0,0,1-.765.745" transform="translate(8.053 42.098)" fill="#c70211" fill-rule="evenodd"/><path d="M4.441,53.544a.752.752,0,0,1-.74-.753V29.87a.751.751,0,0,1,1.5,0V52.791a.755.755,0,0,1-.762.753" transform="translate(5.284 41.571)" fill="#c70211" fill-rule="evenodd"/><path d="M33.041,38.685a.643.643,0,0,1-.354-.1l-4.644-2.673a.749.749,0,0,1-.274-1.024.771.771,0,0,1,1.037-.274l4.617,2.678a.745.745,0,0,1,.277,1.02.772.772,0,0,1-.658.374" transform="translate(39.498 49.274)" fill="#c70211" fill-rule="evenodd"/><path d="M34.488,11.444a.777.777,0,0,1-.384-.1L29,8.4a.746.746,0,0,1-.274-1.022.732.732,0,0,1,1.01-.274l5.108,2.945a.751.751,0,0,1,.274,1.024.7.7,0,0,1-.629.374" transform="translate(40.862 9.994)" fill="#c70211" fill-rule="evenodd"/><path d="M31.152,15.116a.662.662,0,0,1-.362-.1L25.9,12.186a.736.736,0,0,1-.272-1.024.725.725,0,0,1,1.01-.267l4.9,2.823a.75.75,0,0,1,.274,1.024.724.724,0,0,1-.655.374" transform="translate(36.432 15.404)" fill="#c70211" fill-rule="evenodd"/><path d="M34.382,4.328a.732.732,0,0,1-.364-.1l-4.807-2.78a.732.732,0,0,1-.274-1.02.732.732,0,0,1,1.01-.272l4.809,2.772a.744.744,0,0,1,.274,1.024.763.763,0,0,1-.648.374" transform="translate(41.16 0.078)" fill="#c70211" fill-rule="evenodd"/></g></g></svg>