<svg xmlns="http://www.w3.org/2000/svg" xmlns:xlink="http://www.w3.org/1999/xlink" width="100" height="100" viewBox="0 0 100 100"><defs><clipPath id="a"><rect width="75.635" height="100" fill="none"/></clipPath></defs><rect width="100" height="100" fill="none"/><g transform="translate(12.183)" clip-path="url(#a)"><path d="M.835,68.568A40.962,40.962,0,0,0,2.2,79.2,25.21,25.21,0,0,0,6.98,88.342a18.55,18.55,0,0,0,4.47,3.626l3.911,2.267A19.009,19.009,0,0,1,9.092,88.2a26.593,26.593,0,0,1-2.98-6.736A40.922,40.922,0,0,1,4.746,70.834c0-7.333-.87-15.857,1.056-23.189a37.078,37.078,0,0,1,3.352-8.382,41.194,41.194,0,0,1,5.9-8.325c3.043-3.111,6.27-5.662,10.43-7.042a12.011,12.011,0,0,1,5.154-.54,5.855,5.855,0,0,1,2.359.889l2.917,1.706a5.456,5.456,0,0,0,3.664.64,9.23,9.23,0,0,0,2.546-.738,16.869,16.869,0,0,0,2.049-1.092c4.9-2.826,9.747-5.645,14.652-8.469l-3.912-2.26c-4.9,2.819-9.747,5.643-14.652,8.462-.558.348-1.055.614-1.675.925-2.608,1.2-3.973,1.422-6.333.105l-2.608-1.442a9.22,9.22,0,0,0-5.463-1.011c-4.469.559-8.2,3.11-11.423,6.053A38.925,38.925,0,0,0,6.36,35,42.381,42.381,0,0,0,1.828,45.378C-.035,52.73.835,61.26.835,68.568" transform="translate(0.117 2.593)" fill="#ef496a" fill-rule="evenodd"/><path d="M36.029,25.2l.372.223a4.612,4.612,0,0,0,3.229.559,8.13,8.13,0,0,0,2.3-.7,16.826,16.826,0,0,0,1.986-1.049c4.532-2.595,9-5.191,13.472-7.761l.063-.069-2.422-1.422-2.049,1.18c-4.036,2.347-8.133,4.711-12.23,7.083a18.948,18.948,0,0,1-1.739.946,12.065,12.065,0,0,1-2.98,1.011M1.7,68.683A39.11,39.11,0,0,0,3,79.124a23.137,23.137,0,0,0,4.656,8.859,17.126,17.126,0,0,0,1.428,1.379,4.039,4.039,0,0,1-.434-.64,24.922,24.922,0,0,1-3.1-6.942A41.926,41.926,0,0,1,4.117,70.947c0-1.725-.062-3.5-.124-5.332-.123-6.059-.31-12.337,1.18-18.042a42.092,42.092,0,0,1,3.414-8.549,46.473,46.473,0,0,1,6.084-8.462c3.664-3.775,6.954-6,10.68-7.233a13.275,13.275,0,0,1,3.724-.659,8.482,8.482,0,0,0-4.718-.763c-3.6.453-7.015,2.267-10.988,5.872A40.984,40.984,0,0,0,7.1,35.5,40.4,40.4,0,0,0,2.688,45.674c-1.428,5.518-1.3,11.684-1.116,17.654.06,1.833.123,3.621.123,5.354M15.479,95.067a.821.821,0,0,1-.373-.081L11.194,92.72A20.659,20.659,0,0,1,6.6,88.952a24.975,24.975,0,0,1-4.968-9.436A42.058,42.058,0,0,1,.2,68.683c0-1.71-.062-3.5-.123-5.315C-.043,57.3-.229,51.032,1.261,45.307A41.08,41.08,0,0,1,5.856,34.74a43.769,43.769,0,0,1,6.457-8.034c2.669-2.391,6.767-5.624,11.92-6.239a9.576,9.576,0,0,1,5.837,1.075L32.676,23c2.173,1.174,3.23,1.012,5.713-.124A12.677,12.677,0,0,0,40,21.969c4.1-2.346,8.2-4.718,12.294-7.083l2.359-1.36a.6.6,0,0,1,.684,0l3.974,2.248a.809.809,0,0,1,0,1.273l-1.181.684c-4.47,2.595-9,5.164-13.472,7.786a20.49,20.49,0,0,1-2.111,1.11,9.7,9.7,0,0,1-2.731.8,6.074,6.074,0,0,1-4.1-.72L32.49,24.855a4.486,4.486,0,0,0-1.863-.662,11.627,11.627,0,0,0-4.841.514c-3.478,1.154-6.582,3.278-10.059,6.861a40.623,40.623,0,0,0-5.835,8.156,36.221,36.221,0,0,0-3.29,8.22C5.173,53.465,5.3,59.622,5.483,65.6c.062,1.833.123,3.627.123,5.352a38.928,38.928,0,0,0,1.3,10.424,25.647,25.647,0,0,0,2.918,6.55,18.115,18.115,0,0,0,6.023,5.8.721.721,0,0,1-.373,1.341" transform="translate(0 2.48)" fill="#c70211" fill-rule="evenodd"/><path d="M4.1,70.481c0,11.511,4.036,19.608,10.616,23.4s15.584,3.252,25.58-2.5L58.18,81.068V15.94c-4.47,2.576-8.878,5.134-13.347,7.7A28.726,28.726,0,0,1,41.48,25.5c-2.3,1.007-4.347,1.069-6.023.186-2.483-1.341-3.478-2.863-7.14-2.762a16.014,16.014,0,0,0-7.265,2.3A34.339,34.339,0,0,0,9.071,37.9,34.271,34.271,0,0,0,4.1,54.6Z" transform="translate(0.759 2.946)" fill="#fff" fill-rule="evenodd"/><path d="M28.806,23.756a1.8,1.8,0,0,0-.373.026,14.84,14.84,0,0,0-6.891,2.2A34.129,34.129,0,0,0,9.808,38.378,33.358,33.358,0,0,0,4.964,54.713V70.594c0,10.859,3.6,18.948,10.245,22.76,6.642,3.832,15.459,2.943,24.833-2.489L57.551,80.752V17.313c-4.036,2.366-8.134,4.712-12.231,7.084l-.682.416a21.457,21.457,0,0,1-2.732,1.459,7.488,7.488,0,0,1-6.642.186,16.484,16.484,0,0,1-1.739-1.075,7.458,7.458,0,0,0-4.718-1.627M24.273,97.167a19.452,19.452,0,0,1-9.809-2.533C7.386,90.531,3.475,82.006,3.475,70.594V54.713A35,35,0,0,1,8.566,37.64,34.741,34.741,0,0,1,20.8,24.727a16.407,16.407,0,0,1,7.636-2.41,8.829,8.829,0,0,1,5.9,1.832,18.206,18.206,0,0,0,1.614,1.013,6.077,6.077,0,0,0,5.34-.2,28.291,28.291,0,0,0,2.605-1.4l.684-.409c4.47-2.577,8.878-5.154,13.349-7.724a.673.673,0,0,1,.684,0,.7.7,0,0,1,.372.633V81.181a.733.733,0,0,1-.372.639L40.788,92.12c-5.774,3.359-11.424,5.047-16.516,5.047" transform="translate(0.642 2.833)" fill="#c70211" fill-rule="evenodd"/><path d="M17.193,56.766a16.325,16.325,0,0,0-4.346,6.45c-1.987,5.166-.807,9.575,2.671,9.866s7.947-3.669,9.934-8.835a11.938,11.938,0,0,0,.682-6.761,3.861,3.861,0,0,0-3.416-3.1c-1.613-.124-3.6.652-5.525,2.384" transform="translate(2.197 10.05)" fill="#ef496a" fill-rule="evenodd"/><path d="M17.807,57.42A16.112,16.112,0,0,0,13.586,63.6c-1.117,2.96-1.18,5.847-.124,7.493A2.8,2.8,0,0,0,15.7,72.476c3.1.267,7.326-3.589,9.188-8.364a11.147,11.147,0,0,0,.684-6.326,3.1,3.1,0,0,0-2.794-2.552,7.1,7.1,0,0,0-4.967,2.186m-1.8,16.514a3.823,3.823,0,0,1-.434-.019,4.238,4.238,0,0,1-3.353-2.036c-1.3-2.068-1.3-5.359.062-8.8a17.219,17.219,0,0,1,4.595-6.754c1.987-1.8,4.1-2.7,6.023-2.559A4.563,4.563,0,0,1,26.934,57.4a11.647,11.647,0,0,1-.745,7.232c-1.987,5.333-6.457,9.307-10.183,9.307" transform="translate(2.079 9.936)" fill="#c70211" fill-rule="evenodd"/><path d="M28.915,67.006c-2.794,2.514-4.47,6.818-3.662,9.616a2.767,2.767,0,0,0,2.421,2.267c2.545.2,5.774-2.675,7.264-6.444,1.428-3.75.558-6.959-1.988-7.165a5.7,5.7,0,0,0-4.034,1.726" transform="translate(4.63 12.064)" fill="#ef496a" fill-rule="evenodd"/><path d="M29.532,67.658c-2.546,2.309-4.16,6.389-3.478,8.9a2.045,2.045,0,0,0,1.863,1.707c2.11.168,5.091-2.551,6.457-5.954.806-2.123.806-4.141.123-5.289a1.872,1.872,0,0,0-1.489-.906,4.925,4.925,0,0,0-3.476,1.54M28.042,79.751a1.1,1.1,0,0,1-.249-.019,3.5,3.5,0,0,1-3.167-2.781c-.868-3.092.87-7.643,3.912-10.38a6.6,6.6,0,0,1,4.595-1.919,3.34,3.34,0,0,1,2.607,1.59c.931,1.558.931,4.011,0,6.587-1.552,3.955-4.842,6.923-7.7,6.923" transform="translate(4.511 11.948)" fill="#c70211" fill-rule="evenodd"/><path d="M18.259,31.881a23.405,23.405,0,0,0-6.084,9C9.381,48.048,11.058,54.206,15.9,54.6c4.842.415,11.051-5.1,13.783-12.294a15.974,15.974,0,0,0,.993-9.418c-.744-2.674-2.483-4.134-4.719-4.321-2.3-.167-5.028.925-7.7,3.316" transform="translate(2.001 5.277)" fill="#ef496a" fill-rule="evenodd"/><path d="M18.375,32m7.2-2.6c-2.049,0-4.47,1.13-6.7,3.148a21.947,21.947,0,0,0-5.9,8.691c-1.675,4.223-1.738,8.345-.249,10.717a4.275,4.275,0,0,0,3.353,2.036,4.345,4.345,0,0,0,.5.019c4.47,0,10-5.191,12.542-11.865a15.1,15.1,0,0,0,.993-8.953c-.682-2.265-2.11-3.607-4.1-3.774a3.842,3.842,0,0,0-.435-.019M16.513,55.475c-.186,0-.372-.018-.559-.018a5.786,5.786,0,0,1-4.469-2.72c-1.739-2.806-1.739-7.294.123-12.007a24.11,24.11,0,0,1,6.271-9.268c2.731-2.472,5.649-3.731,8.257-3.5s4.532,1.975,5.339,4.861c.745,2.738.373,6.238-.993,9.865-2.794,7.19-8.941,12.789-13.969,12.789" transform="translate(1.884 5.163)" fill="#c70211" fill-rule="evenodd"/><path d="M44.659,86.051c3.912-5.6,1.056-10.3-1.8-14.993-5.9-9.642-6.457-14.006.5-22.9l18.626.082,2.173,2.017a11.97,11.97,0,0,1,3.539,6.078c1.8,8.525-11.735,25.722-17.882,31-3.6,3.025-8.194,3.043-5.153-1.278" transform="translate(7.077 8.901)" fill="#ef496a" fill-rule="evenodd"/><path d="M44.769,86.164m-.931-37.158c-6.581,8.469-5.9,12.5-.248,21.775,2.98,4.816,5.961,9.8,1.738,15.812-.868,1.259-.931,1.961-.745,2.1.435.415,2.671.043,4.842-1.813,6.21-5.315,19.371-22.263,17.633-30.3A11.291,11.291,0,0,0,63.767,50.9l-1.986-1.832ZM45.2,90.3a2.315,2.315,0,0,1-1.614-.515c-.621-.577-1.056-1.751.559-4.034,3.662-5.236.993-9.6-1.8-14.218-5.9-9.716-6.705-14.516.558-23.7a.634.634,0,0,1,.559-.286l18.626.056a.724.724,0,0,1,.5.212l2.173,2.036a12.485,12.485,0,0,1,3.725,6.444c1.924,8.922-11.982,26.491-18.129,31.7A8.734,8.734,0,0,1,45.2,90.3" transform="translate(6.967 8.788)" fill="#c70211" fill-rule="evenodd"/><path d="M43.628,88.693a.792.792,0,0,1-.435-.161.744.744,0,0,1-.124-1.031c2.236-2.806,4.595-6.78,3.416-12.728A48.137,48.137,0,0,0,44,66.715c-1.8-4.693-3.352-8.749-.807-14.808a.8.8,0,0,1,.993-.391.713.713,0,0,1,.373.968c-2.359,5.52-.993,9.128.807,13.7a49.866,49.866,0,0,1,2.546,8.3c1.3,6.531-1.3,10.877-3.664,13.926a.855.855,0,0,1-.621.286" transform="translate(7.737 9.513)" fill="#c70211" fill-rule="evenodd"/><path d="M43.936,87.312a.643.643,0,0,1-.5-.23.679.679,0,0,1,0-1.025c9.808-9.579,10.306-26.448,8.815-31.887a.708.708,0,0,1,.5-.882.752.752,0,0,1,.931.509c1.491,5.661,1.056,23.294-9.19,33.308a1.025,1.025,0,0,1-.558.2" transform="translate(7.987 9.845)" fill="#c70211" fill-rule="evenodd"/><path d="M44.308,89.166a.718.718,0,0,1-.682-.454A.679.679,0,0,1,44,87.771a1.339,1.339,0,0,0,.248-.105.805.805,0,0,1,.249-.621c8.443-7.8,19.742-23.786,14.279-33.465a.668.668,0,0,1,.249-.993.743.743,0,0,1,.994.267c5.525,9.7-3.726,23.506-10.68,31.292,5.9-5.422,11.982-15.037,13.6-22.575.622-2.886.931-6.86-1.428-9.313a.765.765,0,0,1,.063-1.05.691.691,0,0,1,.993.044c2.173,2.3,2.855,5.973,1.8,10.622C62.127,72.3,52.13,86.038,44.556,89.1a.521.521,0,0,1-.248.062" transform="translate(8.05 9.43)" fill="#c70211" fill-rule="evenodd"/><path d="M64.833,51.561V30.942c-.124,2.167-1.677,3.651-3.476,4.7-4.347,2.472-10.616,2.615-15.211.783-2.359-.95-4.967-2.719-5.153-5.482V51.4l.062.161c.87,8.711,22.909,8.754,23.779,0" transform="translate(7.577 5.719)" fill="#fff" fill-rule="evenodd"/><path d="M64.94,51.677h0Zm-23.1-17.2V51.516c.435,4.141,6.084,5.973,11.175,5.992,5.091,0,10.8-1.851,11.175-5.893l.062-.142V34.48A10.886,10.886,0,0,1,61.837,36.4,19.4,19.4,0,0,1,46,37.217a10.758,10.758,0,0,1-4.16-2.737M53.02,58.972h0c-5.961-.025-12.107-2.248-12.6-7.207V31.058a.74.74,0,0,1,.684-.738.708.708,0,0,1,.745.7c.186,2.614,2.98,4.159,4.656,4.837,4.594,1.812,10.616,1.527,14.589-.739,2.05-1.173,3.043-2.533,3.167-4.122A.645.645,0,0,1,65,30.32a.739.739,0,0,1,.684.738V51.764c-.5,4.979-6.705,7.207-12.665,7.207" transform="translate(7.471 5.602)" fill="#c70211" fill-rule="evenodd"/><path d="M61.357,42.656c1.738-1.011,3.415-2.595,3.476-4.718V6.592c-.248,3.829-5.028,5.786-8.257,6.382-4.345.8-10.43.187-13.783-2.924a5.31,5.31,0,0,1-1.8-3.457V37.938c.124,2.781,3.043,4.693,5.4,5.582a18.777,18.777,0,0,0,14.962-.864" transform="translate(7.577 1.218)" fill="#ef496a" fill-rule="evenodd"/><path d="M61.464,42.773h0ZM41.845,10.124V38.056c.062,2.265,2.607,4.017,4.905,4.9a18.086,18.086,0,0,0,14.34-.82c1.18-.682,3.105-2.1,3.167-4.1V10.124c-1.738,1.981-4.781,3.191-7.389,3.687C52.4,14.638,46,14.017,42.4,10.72c-.186-.2-.372-.385-.558-.6M53.02,45.53a18.8,18.8,0,0,1-6.768-1.217c-1.365-.491-5.773-2.451-5.837-6.239V6.709a.734.734,0,0,1,.684-.745.7.7,0,0,1,.745.677A4.259,4.259,0,0,0,43.4,9.633c3.228,2.962,9.126,3.5,13.161,2.738,3.416-.64,7.512-2.515,7.7-5.731A.741.741,0,0,1,65,5.964a.733.733,0,0,1,.684.745V38.056c-.062,2.576-2.11,4.321-3.848,5.333A18.078,18.078,0,0,1,53.02,45.53" transform="translate(7.471 1.101)" fill="#c70211" fill-rule="evenodd"/><path d="M52.914,14.405a17.323,17.323,0,0,0,8.443-2.018c2.359-1.341,3.476-3.11,3.476-4.88,0-1.751-1.117-3.526-3.476-4.86A17.259,17.259,0,0,0,52.914.628a17.014,17.014,0,0,0-8.382,2.019c-2.359,1.334-3.539,3.109-3.539,4.86,0,1.77,1.18,3.539,3.539,4.88a17.078,17.078,0,0,0,8.382,2.018" transform="translate(7.577 0.116)" fill="#f89fb5" fill-rule="evenodd"/><path d="M53.02,1.48a16.652,16.652,0,0,0-8.072,1.912c-1.986,1.155-3.1,2.664-3.1,4.229,0,1.583,1.117,3.085,3.1,4.241a16.574,16.574,0,0,0,8.072,1.918,16.227,16.227,0,0,0,8.07-1.918c2.05-1.155,3.167-2.658,3.167-4.241,0-1.565-1.117-3.073-3.167-4.229A16.3,16.3,0,0,0,53.02,1.48m0,13.758a17.806,17.806,0,0,1-8.755-2.1c-2.482-1.44-3.85-3.4-3.85-5.519s1.367-4.06,3.85-5.5A17.794,17.794,0,0,1,53.02.021a17.872,17.872,0,0,1,8.816,2.1c2.483,1.44,3.848,3.395,3.848,5.5S64.32,11.7,61.837,13.14a17.885,17.885,0,0,1-8.816,2.1" transform="translate(7.471 0.003)" fill="#c70211" fill-rule="evenodd"/><path d="M62.1,6.044c0-7.226-19.061-7.226-19.061,0,0,7.251,19.061,7.251,19.061,0" transform="translate(7.955 0.115)" fill="#f89fb5" fill-rule="evenodd"/><path d="M52.652,1.464h0C48.3,1.464,43.9,3.092,43.9,6.159c0,3.091,4.408,4.7,8.755,4.7,4.408,0,8.816-1.609,8.816-4.7,0-3.066-4.409-4.694-8.816-4.694m0,10.853h0c-4.906,0-10.244-1.912-10.244-6.159C42.408,1.937,47.746,0,52.652,0c4.966,0,10.306,1.937,10.306,6.159,0,4.246-5.34,6.159-10.306,6.159" transform="translate(7.839 0)" fill="#c70211" fill-rule="evenodd"/><path d="M43.388,82.725c2.05-2.738.994-5.98-.062-9.065-1.117-3.377,5.153,1.335,9.623-.391,5.465-2.124,4.346-8.239,9.064-9.127,1.677-.31,3.167-.472,2.483,1.092C60.9,73.7,53.632,81.24,49.224,85.028c-3.6,3.03-8.878,2-5.837-2.3" transform="translate(7.852 11.818)" fill="#f89fb5" fill-rule="evenodd"/><path d="M44.063,83.264c-.372.536-1.18,1.858-.5,2.473.807.726,3.229.6,5.277-1.149C54,80.2,60.7,72.742,63.931,65.063a.949.949,0,0,0,.124-.354c0,.062-.373,0-1.8.267-1.988.373-2.794,1.838-3.725,3.713-1.057,1.974-2.237,4.222-5.216,5.37-2.421.95-5.216.186-7.264-.391a17.1,17.1,0,0,0-1.987-.435,3,3,0,0,1,.062.312c1.056,3.172,2.236,6.7-.062,9.721m.931,4.347a3.541,3.541,0,0,1-2.422-.782c-.5-.473-1.491-1.857.31-4.427v-.025c1.863-2.4.87-5.271-.123-8.32a1.761,1.761,0,0,1,.186-1.876c.621-.675,1.738-.391,3.478.088,1.863.514,4.408,1.192,6.393.429,2.422-.963,3.415-2.863,4.408-4.693.994-1.955,2.05-3.955,4.781-4.47,1.367-.249,2.608-.411,3.23.353A1.6,1.6,0,0,1,65.3,65.64C61.944,73.567,55.115,81.186,49.776,85.7a7.635,7.635,0,0,1-4.781,1.912" transform="translate(7.736 11.706)" fill="#c70211" fill-rule="evenodd"/></g></svg>