<svg xmlns="http://www.w3.org/2000/svg" xmlns:xlink="http://www.w3.org/1999/xlink" width="100" height="100" viewBox="0 0 100 100"><defs><clipPath id="a"><rect width="81.201" height="100" fill="none"/></clipPath></defs><rect width="100" height="100" fill="none"/><g transform="translate(9.4)" clip-path="url(#a)"><path d="M5.245,99,1.551,96.864a2.246,2.246,0,0,1-.929-2.043V30.658a6.435,6.435,0,0,1,.929-3.115,6.505,6.505,0,0,1,2.228-2.359l6.774-3.911,4.025-2.324L34.8,7.276l3.516-2.03L45.6,1.04A2.242,2.242,0,0,1,47.83.824l3.7,2.133a2.259,2.259,0,0,0-2.235.221l-7.283,4.2L38.5,9.413,18.285,21.081l-4.03,2.329L7.48,27.321a6.51,6.51,0,0,0-2.235,2.36A6.581,6.581,0,0,0,4.324,32.8V96.954A2.252,2.252,0,0,0,5.245,99" transform="translate(0.089 0.088)" fill="#f89fb5" fill-rule="evenodd"/><path d="M47.068,1.4a2.516,2.516,0,0,0-1.06.353L4.221,25.881A5.777,5.777,0,0,0,2.237,28a5.837,5.837,0,0,0-.825,2.779V94.909c.042.825.173,1.143.628,1.461l1.678.97c0-.09-.007-.181-.007-.27L3.705,32.883a7.221,7.221,0,0,1,1.013-3.45,7.255,7.255,0,0,1,2.473-2.619L49.032,2.655c.091-.048.175-.09.27-.138l-1.732-1a1.192,1.192,0,0,0-.5-.12M5.334,99.79a.653.653,0,0,1-.346-.1l-3.7-2.139A2.964,2.964,0,0,1,0,94.938V30.745A7.308,7.308,0,0,1,1.017,27.3a7.344,7.344,0,0,1,2.472-2.618L45.337.517A3,3,0,0,1,48.219.271l3.754,2.163a.706.706,0,0,1,.271.934.7.7,0,0,1-.924.312c-.5-.233-.844-.191-1.611.209L7.922,28.02a6.309,6.309,0,0,0-2.81,4.893V97.041c.037.832.174,1.156.63,1.468a.7.7,0,0,1,.191.951.718.718,0,0,1-.6.33" transform="translate(0.001 0)" fill="#c70211" fill-rule="evenodd"/><path d="M48.834,74.37,7.016,98.512c-1.736,1.007-3.155.186-3.155-1.827V32.529a7,7,0,0,1,3.155-5.475l6.775-3.91,4.031-2.329L38.036,9.146l3.515-2.037,7.283-4.2C50.577,1.9,52,2.726,52,4.732V68.9a7,7,0,0,1-3.163,5.474" transform="translate(0.552 0.355)" fill="#f89fb5" fill-rule="evenodd"/><path d="M48.923,74.458h0ZM50.33,3.276a2.235,2.235,0,0,0-1.054.329L7.459,27.754a6.3,6.3,0,0,0-2.81,4.864V96.776a1.585,1.585,0,0,0,.575,1.43,1.578,1.578,0,0,0,1.527-.215L48.569,73.848a6.324,6.324,0,0,0,2.808-4.864V4.821A1.589,1.589,0,0,0,50.8,3.389a.954.954,0,0,0-.473-.113M5.7,99.734a2.283,2.283,0,0,1-1.174-.306,2.876,2.876,0,0,1-1.281-2.652V32.617a7.673,7.673,0,0,1,3.509-6.085L48.569,2.39a2.893,2.893,0,0,1,2.939-.223,2.879,2.879,0,0,1,1.277,2.654V68.984a7.654,7.654,0,0,1-3.509,6.085L7.459,99.213a3.587,3.587,0,0,1-1.761.521" transform="translate(0.464 0.267)" fill="#c70211" fill-rule="evenodd"/><path d="M8.917,30.69V91.781L46.972,69.807V8.716L8.917,30.69" transform="translate(1.275 1.247)" fill="#fff" fill-rule="evenodd"/><path d="M9.711,31.186V90.647L46.354,69.487V10.025ZM9,92.57a.667.667,0,0,1-.347-.1.7.7,0,0,1-.353-.6V30.779a.7.7,0,0,1,.353-.612L46.708,8.2a.7.7,0,0,1,1.054.606V69.9a.7.7,0,0,1-.353.609L9.358,92.474a.673.673,0,0,1-.353.1" transform="translate(1.188 1.16)" fill="#c70211" fill-rule="evenodd"/><path d="M20.823,25.826v-6.26q6.98-4.041,13.98-8.073v6.265q-7,4.036-13.98,8.069M36.869,18.6V8.265L18.758,18.722V29.054Z" transform="translate(2.683 1.182)" fill="#fff" fill-rule="evenodd"/><path d="M21.614,20.062V24.7l12.571-7.266V12.8Zm-.7,6.557a.709.709,0,0,1-.353-.1.7.7,0,0,1-.353-.609v-6.26a.7.7,0,0,1,.353-.61L34.538,10.97a.7.7,0,0,1,1.054.612v6.265a.682.682,0,0,1-.353.6L21.265,26.524a.739.739,0,0,1-.353.1m16.046-7.935h0Zm-17.41.533,16.7-9.641v8.7l-16.7,9.649Zm-.7,10.631a.676.676,0,0,1-.354-.095.7.7,0,0,1-.352-.613V18.811a.7.7,0,0,1,.352-.612L36.6,7.742a.7.7,0,0,1,1.054.612V18.685a.7.7,0,0,1-.353.61L19.193,29.754a.665.665,0,0,1-.346.095" transform="translate(2.594 1.094)" fill="#c70211" fill-rule="evenodd"/><path d="M19.254,19.009,37.365,8.552,34.88,7.119l-1.486-.856L15.289,16.721Z" transform="translate(2.187 0.896)" fill="#fff" fill-rule="evenodd"/><path d="M16.786,16.81l2.557,1.472,16.7-9.641L33.483,7.162ZM19.342,19.8a.734.734,0,0,1-.354-.1L15.023,17.42a.706.706,0,0,1,0-1.222L33.136,5.742a.69.69,0,0,1,.7,0L37.8,8.029a.7.7,0,0,1,0,1.222L19.689,19.708a.725.725,0,0,1-.346.1" transform="translate(2.098 0.808)" fill="#c70211" fill-rule="evenodd"/><path d="M14.243,38.113h0a3.012,3.012,0,0,0-1.359,2.348c0,.869.61,1.216,1.359.784A2.994,2.994,0,0,0,15.6,38.9c0-.862-.6-1.216-1.353-.785" transform="translate(1.843 5.425)" fill="#f89fb5" fill-rule="evenodd"/><path d="M14.684,38.814a2.33,2.33,0,0,0-1.006,1.736.482.482,0,0,0,.055.275.891.891,0,0,0,.245-.1,2.314,2.314,0,0,0,1.007-1.739.546.546,0,0,0-.054-.274.7.7,0,0,0-.247.1m-.964,3.407a1.373,1.373,0,0,1-.7-.185,1.631,1.631,0,0,1-.754-1.486A3.725,3.725,0,0,1,13.977,37.6V37.59a1.523,1.523,0,0,1,2.414,1.4,3.72,3.72,0,0,1-1.708,2.959,1.931,1.931,0,0,1-.964.275" transform="translate(1.754 5.337)" fill="#c70211" fill-rule="evenodd"/><path d="M14.243,45.481h0a3.014,3.014,0,0,0-1.359,2.355c0,.862.61,1.215,1.359.777A2.981,2.981,0,0,0,15.6,46.272c0-.869-.6-1.222-1.353-.791" transform="translate(1.843 6.479)" fill="#f89fb5" fill-rule="evenodd"/><path d="M14.684,46.18a2.331,2.331,0,0,0-1.006,1.742.478.478,0,0,0,.055.27,1.076,1.076,0,0,0,.245-.1,2.33,2.33,0,0,0,1.007-1.737.557.557,0,0,0-.054-.28.872.872,0,0,0-.247.1m-.964,3.413a1.42,1.42,0,0,1-.7-.185,1.637,1.637,0,0,1-.754-1.486,3.744,3.744,0,0,1,1.712-2.965,1.523,1.523,0,0,1,2.414,1.4,3.718,3.718,0,0,1-1.708,2.954,1.941,1.941,0,0,1-.964.281" transform="translate(1.754 6.391)" fill="#c70211" fill-rule="evenodd"/><path d="M14.243,53.315h0a3,3,0,0,0-1.359,2.349c0,.862.61,1.208,1.359.777A2.985,2.985,0,0,0,15.6,54.095c0-.857-.6-1.216-1.353-.78" transform="translate(1.843 7.599)" fill="#f89fb5" fill-rule="evenodd"/><path d="M14.684,54.008a2.343,2.343,0,0,0-1.006,1.743.475.475,0,0,0,.055.27.978.978,0,0,0,.245-.1,2.292,2.292,0,0,0,1.007-1.737.548.548,0,0,0-.054-.275.918.918,0,0,0-.247.1m-.964,3.414a1.409,1.409,0,0,1-.7-.186,1.641,1.641,0,0,1-.754-1.485,3.723,3.723,0,0,1,1.712-2.959v-.006a1.522,1.522,0,0,1,2.414,1.4,3.673,3.673,0,0,1-1.708,2.958,1.943,1.943,0,0,1-.964.282" transform="translate(1.754 7.51)" fill="#c70211" fill-rule="evenodd"/><path d="M5.246,95.628,1.552,93.49a1.929,1.929,0,0,1-.654-.7A5.824,5.824,0,0,1,.623,90.34V29A10.979,10.979,0,0,1,.9,25.637a6.947,6.947,0,0,1,.66-1.479l3.7,2.139a6.506,6.506,0,0,0-.767,1.893,10.494,10.494,0,0,0-.167,2.52V92.352a10.06,10.06,0,0,0,.089,2.037,1.9,1.9,0,0,0,.832,1.239" transform="translate(0.088 3.455)" fill="#ef496a" fill-rule="evenodd"/><path d="M1.927,25.221a5.692,5.692,0,0,0-.264.708,8.454,8.454,0,0,0-.25,2.642v62.2a4.361,4.361,0,0,0,.2,1.78A1.22,1.22,0,0,0,2.04,93l1.678.97c-.025-.39-.018-.784-.018-1.15l.006-.383V30.467a9.673,9.673,0,0,1,.186-2.347,7.327,7.327,0,0,1,.515-1.469Zm3.407,71.2a.653.653,0,0,1-.346-.1l-3.7-2.139A2.629,2.629,0,0,1,.365,93.2,5.228,5.228,0,0,1,0,90.751V28.581a9.784,9.784,0,0,1,.312-3.06,6.918,6.918,0,0,1,.729-1.641A.7.7,0,0,1,2,23.641l3.7,2.131a.717.717,0,0,1,.329.438.709.709,0,0,1-.078.54,5.688,5.688,0,0,0-.688,1.688,8.663,8.663,0,0,0-.151,2.02V92.841a6.48,6.48,0,0,0,.079,1.485,1.2,1.2,0,0,0,.545.809.7.7,0,0,1,.2.957.718.718,0,0,1-.6.33" transform="translate(0 3.368)" fill="#c70211" fill-rule="evenodd"/><path d="M15.289,17.443l1.76,1.024v8.295l2.2,1.27V17.7l-3.965-2.288Z" transform="translate(2.186 2.205)" fill="#f89fb5" fill-rule="evenodd"/><path d="M17.844,26.442l.792.462V18.2l-2.558-1.479v.407l1.413.82a.7.7,0,0,1,.353.613Zm1.5,2.384a.676.676,0,0,1-.354-.095l-2.2-1.271a.69.69,0,0,1-.354-.61V18.962l-1.414-.821a.7.7,0,0,1-.352-.612V15.5a.7.7,0,0,1,1.053-.61l3.965,2.287a.7.7,0,0,1,.354.612V28.119a.7.7,0,0,1-.354.613.665.665,0,0,1-.346.095" transform="translate(2.098 2.116)" fill="#c70211" fill-rule="evenodd"/><path d="M18.793,39.561a.7.7,0,0,1-.354-1.312L40.493,25.517a.7.7,0,1,1,.706,1.215L19.146,39.466a.692.692,0,0,1-.353.095" transform="translate(2.587 3.636)" fill="#c70211" fill-rule="evenodd"/><path d="M18.793,47.39a.7.7,0,0,1-.354-1.312L40.493,33.344a.7.7,0,1,1,.706,1.217L19.146,47.294a.705.705,0,0,1-.353.1" transform="translate(2.587 4.756)" fill="#c70211" fill-rule="evenodd"/><path d="M18.793,54.3a.7.7,0,0,1-.354-1.312l15.723-9.074a.7.7,0,0,1,.958.257.705.705,0,0,1-.257.96L19.146,54.2a.705.705,0,0,1-.353.1" transform="translate(2.587 6.267)" fill="#c70211" fill-rule="evenodd"/><path d="M30.868,12.359v3.5l2.2,1.492V11.089Z" transform="translate(4.414 1.586)" fill="#fff" fill-rule="evenodd"/><path d="M31.662,15.58l.79.534V12.4l-.79.456Zm1.5,2.564a.721.721,0,0,1-.4-.121l-2.2-1.484a.707.707,0,0,1-.312-.588v-3.5a.707.707,0,0,1,.354-.61l2.2-1.27a.7.7,0,0,1,1.055.612v6.265a.7.7,0,0,1-.371.617.659.659,0,0,1-.329.083" transform="translate(4.327 1.498)" fill="#c70211" fill-rule="evenodd"/><path d="M20.565,22.069l11.775-6.8,2.2,1.492L20.565,24.825Z" transform="translate(2.941 2.184)" fill="#fff" fill-rule="evenodd"/><path d="M21.354,22.565V23.7L33.3,16.8l-.9-.612Zm-.7,3.054a.718.718,0,0,1-.353-.1.7.7,0,0,1-.353-.61V22.157a.7.7,0,0,1,.353-.61l11.781-6.8a.7.7,0,0,1,.742.024l2.2,1.486a.7.7,0,0,1,.305.612.685.685,0,0,1-.353.581L21,25.523a.717.717,0,0,1-.347.1" transform="translate(2.853 2.096)" fill="#c70211" fill-rule="evenodd"/><path d="M43.656,80.51,38.14,77.323c6.469,3.642,14.524-2.455,18.639-7.163C62.528,63.6,67.6,52.4,65.415,43.682a9.529,9.529,0,0,0-4.269-6.2l5.8,3.354c5.816,3.7,4.9,13.045,3.1,18.782-2.672,8.5-9.9,18.795-18.681,21.442a9.615,9.615,0,0,1-7.7-.545" transform="translate(5.455 5.36)" fill="#ef496a" fill-rule="evenodd"/><path d="M44.1,80a8.937,8.937,0,0,0,7.152.473c8.421-2.54,15.529-12.476,18.207-20.981,1.959-6.224,2.4-14.668-2.8-17.974l-1.618-.935A12.78,12.78,0,0,1,66.186,43.6c2.281,9.134-2.954,20.454-8.786,27.12-3.762,4.293-9.326,8.384-14.632,8.511ZM48,82.4a9.237,9.237,0,0,1-4.594-1.18.02.02,0,0,1-.013-.007l-5.516-3.186a.7.7,0,0,1,.695-1.223c6.151,3.469,14.064-2.784,17.77-7.012,5.773-6.6,10.547-17.6,8.481-25.85a8.823,8.823,0,0,0-3.947-5.768.7.7,0,0,1,.712-1.216l5.8,3.355c5.9,3.749,5.529,12.9,3.419,19.6-2.79,8.858-10.26,19.225-19.147,21.9A12.563,12.563,0,0,1,48,82.4" transform="translate(5.366 5.272)" fill="#c70211" fill-rule="evenodd"/><path d="M53.522,40.864c-8.87,5.128-16.063,17.58-16.063,27.827s7.193,14.393,16.063,9.271,16.063-17.578,16.063-27.82-7.193-14.4-16.063-9.278" transform="translate(5.357 5.531)" fill="#fff" fill-rule="evenodd"/><path d="M60.784,39.462a13.852,13.852,0,0,0-6.82,2.1c-8.667,5-15.711,17.206-15.711,27.215,0,4.689,1.545,8.163,4.348,9.785s6.6,1.223,10.661-1.119c8.661-5.008,15.711-17.214,15.711-27.216,0-4.694-1.551-8.169-4.355-9.786a7.517,7.517,0,0,0-3.834-.982M46.435,80.956A8.917,8.917,0,0,1,41.9,79.788c-3.258-1.887-5.054-5.8-5.054-11.008,0-10.459,7.361-23.209,16.416-28.432,4.51-2.611,8.792-3.012,12.057-1.125S70.38,45.013,70.38,50.23c0,10.452-7.367,23.2-16.416,28.431a15.334,15.334,0,0,1-7.529,2.3" transform="translate(5.269 5.442)" fill="#c70211" fill-rule="evenodd"/><path d="M50.686,35.167C54.734,32.885,60,31.225,64.4,33.586l5.522,3.187c-8.121-4.043-17.751,3.462-22.764,9.32-6.714,7.846-12.483,20.681-10.422,31.089a12.209,12.209,0,0,0,5.085,8.272c-1.318-.754-5.157-2.869-6.164-3.629-6.33-4.786-5.294-15.423-3.287-22.059,2.9-9.62,9.582-19.429,18.316-24.6" transform="translate(4.409 4.64)" fill="#ef496a" fill-rule="evenodd"/><path d="M51.129,35.868C43.1,40.623,36.21,49.889,33.138,60.053c-2.164,7.139-2.66,17,3.035,21.3.337.257,1.044.689,1.864,1.168A15.5,15.5,0,0,1,36.131,77.4c-2.125-10.781,4-23.98,10.583-31.683,4.72-5.516,11.9-10.913,18.718-10.685l-1.288-.749c-4.319-2.318-9.457-.421-13.016,1.581M41.911,86.25a.708.708,0,0,1-.354-.095l-1.221-.7c-1.773-1-4.2-2.365-5.013-2.987-6.265-4.732-5.936-14.89-3.534-22.827C34.958,49.153,42.1,39.576,50.417,34.652a.025.025,0,0,0,.013-.006c3.863-2.18,9.5-4.217,14.4-1.588l5.54,3.2A.7.7,0,0,1,69.7,37.5c-7.295-3.636-16.362,2.652-21.915,9.138-6.378,7.451-12.307,20.172-10.271,30.5.712,3.6,2.276,6.162,4.786,7.822a.708.708,0,0,1-.39,1.293" transform="translate(4.318 4.551)" fill="#c70211" fill-rule="evenodd"/><path d="M43.416,75.379l-5.522-3.187,5.8,3.354Z" transform="translate(5.419 10.325)" fill="#ef496a" fill-rule="evenodd"/><path d="M43.779,76.341a.694.694,0,0,1-.353-.1l-5.8-3.354a.706.706,0,0,1,.708-1.223l5.516,3.188c.011,0,.011.011.011.011l.289.167a.7.7,0,0,1-.373,1.306" transform="translate(5.332 10.237)" fill="#c70211" fill-rule="evenodd"/><path d="M67.024,40.984a8.688,8.688,0,0,0-5.282-1.031,15.81,15.81,0,0,0-6.224,2.168A28.253,28.253,0,0,0,49.3,47.134a38.783,38.783,0,0,0-5.283,7.134,38.165,38.165,0,0,0-3.526,8.139A27.785,27.785,0,0,0,39.251,70.3a15.644,15.644,0,0,0,1.236,6.475,8.286,8.286,0,0,0,8.809,5.09,15.7,15.7,0,0,0,6.223-2.174,27.906,27.906,0,0,0,6.224-5.013,38.342,38.342,0,0,0,5.282-7.127,37.752,37.752,0,0,0,3.533-8.141,28.026,28.026,0,0,0,1.229-7.894,15.75,15.75,0,0,0-1.229-6.474,8.664,8.664,0,0,0-3.533-4.061M41.461,52.794c3.6-6.228,8.571-11.672,14.057-14.841s10.464-3.468,14.058-1.39S75.4,43.093,75.4,49.435s-2.222,13.356-5.821,19.591S61.011,80.693,55.518,83.862s-10.457,3.468-14.057,1.4-5.821-6.528-5.821-12.87,2.222-13.363,5.821-19.592" transform="translate(5.097 5.04)" fill="#f89fb5" fill-rule="evenodd"/><path d="M62.878,40.7a8.856,8.856,0,0,0-.976.048,15.028,15.028,0,0,0-5.941,2.078,27.441,27.441,0,0,0-6.067,4.888,37.567,37.567,0,0,0-5.18,7A37.11,37.11,0,0,0,41.246,62.7a27.221,27.221,0,0,0-1.2,7.7,14.975,14.975,0,0,0,1.168,6.187,7.573,7.573,0,0,0,8.1,4.677,15.051,15.051,0,0,0,5.947-2.078,27.313,27.313,0,0,0,6.061-4.893A38.284,38.284,0,0,0,69.969,59.3a27.175,27.175,0,0,0,1.2-7.7,15.051,15.051,0,0,0-1.168-6.188,7.955,7.955,0,0,0-3.247-3.737,7.638,7.638,0,0,0-3.881-.989M48.336,82.71a9.071,9.071,0,0,1-4.587-1.18,9.3,9.3,0,0,1-3.815-4.372,16.329,16.329,0,0,1-1.3-6.768,28.546,28.546,0,0,1,1.263-8.1A38.452,38.452,0,0,1,43.5,54a39.21,39.21,0,0,1,5.379-7.265,28.714,28.714,0,0,1,6.385-5.133,16.417,16.417,0,0,1,6.5-2.263,8.988,8.988,0,0,1,9.529,5.5,16.377,16.377,0,0,1,1.294,6.768,28.417,28.417,0,0,1-1.264,8.1,39.709,39.709,0,0,1-8.978,15.548,28.556,28.556,0,0,1-6.378,5.138,16.46,16.46,0,0,1-6.5,2.264c-.383.037-.754.054-1.12.054M64.484,36.024a9.547,9.547,0,0,1,4.826,1.234c3.528,2.036,5.475,6.391,5.475,12.266,0,6.008-2.036,12.842-5.732,19.237S60.458,80.339,55.26,83.346c-5.085,2.935-9.829,3.426-13.356,1.389s-5.468-6.389-5.468-12.259c0-6.008,2.03-12.842,5.725-19.244s8.6-11.572,13.8-14.578a17.405,17.405,0,0,1,8.523-2.63M46.731,87.376a10.88,10.88,0,0,1-5.528-1.42c-3.99-2.3-6.18-7.086-6.18-13.481,0-6.253,2.107-13.339,5.922-19.946s8.9-11.972,14.315-15.1c5.528-3.191,10.774-3.689,14.756-1.389s6.176,7.086,6.176,13.482c0,6.252-2.1,13.332-5.916,19.944s-8.9,11.966-14.315,15.093a18.735,18.735,0,0,1-9.23,2.814" transform="translate(5.009 4.951)" fill="#c70211" fill-rule="evenodd"/><path d="M55.918,57.587,54.48,60.636,44.239,57.713l1.438-3.048Z" transform="translate(6.327 7.818)" fill="#f89fb5" fill-rule="evenodd"/><path d="M45.323,57.352l8.863,2.528.833-1.755L46.148,55.59Zm9.246,4.074a.775.775,0,0,1-.2-.025L44.135,58.478a.7.7,0,0,1-.442-.975l1.437-3.05a.689.689,0,0,1,.833-.377L56.2,56.994a.682.682,0,0,1,.448.387.706.706,0,0,1-.006.594L55.2,61.023a.7.7,0,0,1-.634.4" transform="translate(6.239 7.73)" fill="#c70211" fill-rule="evenodd"/><path d="M51.213,64.981a.756.756,0,0,1-.354-.09.713.713,0,0,1-.257-.965L62.479,43.353a.7.7,0,1,1,1.215.7L51.818,64.627a.691.691,0,0,1-.6.354" transform="translate(7.223 6.15)" fill="#c70211" fill-rule="evenodd"/></g></svg>