<svg xmlns="http://www.w3.org/2000/svg" xmlns:xlink="http://www.w3.org/1999/xlink" width="100" height="100" viewBox="0 0 100 100"><defs><clipPath id="a"><rect width="84.165" height="100" fill="none"/></clipPath></defs><g transform="translate(0 -13)"><rect width="100" height="100" transform="translate(0 13)" fill="none"/><g transform="translate(7.917 13)" clip-path="url(#a)"><path d="M67.177,87.251l-1.206-1.775c7.042-8.96,6-19.1,3.021-27.89l1.922-1.554c3.346,9.876,4.062,21.434-3.737,31.219" transform="translate(5.648 4.796)" fill="#ef496a" fill-rule="evenodd"/><path d="M66.855,85.558l.415.609c5.854-7.846,6.985-17.577,3.361-28.949l-.8.647C73.5,69,72.514,78.072,66.855,85.558m.375,2.418h-.017a.681.681,0,0,1-.528-.3l-1.207-1.774a.669.669,0,0,1,.016-.786c5.719-7.275,6.662-16.2,2.926-27.265a.677.677,0,0,1,.208-.733l1.907-1.554a.672.672,0,0,1,1.057.3c4.21,12.4,2.867,23.413-3.834,31.85a.66.66,0,0,1-.529.256" transform="translate(5.595 4.744)" fill="#c70211" fill-rule="evenodd"/><path d="M65.272,92.507a6.87,6.87,0,1,0-7.81-5.792,6.859,6.859,0,0,0,7.81,5.792" transform="translate(4.913 6.749)" fill="#ef496a" fill-rule="evenodd"/><path d="M64.325,79.56a6.452,6.452,0,0,0-.922.068,6.2,6.2,0,1,0,5.887,9.83,6.2,6.2,0,0,0-4.966-9.9m1,13h0Zm-1.017.745a7.6,7.6,0,1,1,1.115-.086,7.33,7.33,0,0,1-1.115.086" transform="translate(4.86 6.696)" fill="#c70211" fill-rule="evenodd"/><path d="M8.589,54.688l6.587-3.8.472-.153a7.729,7.729,0,0,1,3.208-.16c2.964.461,5.9,2.407,8.054,4.431,4.585,4.3,8.248,11.149,8.778,17.452a13.354,13.354,0,0,1-.928,6.6,7.367,7.367,0,0,1-1.507,2.16l-.376.338-6.586,3.8c.261-.238.489-.432.733-.7a8.417,8.417,0,0,0,1.587-2.89,17.523,17.523,0,0,0-.211-9.425C26.837,66.5,22.872,60.28,17.872,56.809a12.849,12.849,0,0,0-6.734-2.531,7.278,7.278,0,0,0-2.077.256Z" transform="translate(0.735 4.321)" fill="#f89fb5" fill-rule="evenodd"/><path d="M11.793,53.693a14.125,14.125,0,0,1,6.514,2.616c4.885,3.385,9.113,9.632,10.791,15.911.569,2.116,1.359,6.2.188,9.806a8.674,8.674,0,0,1-.449,1.179l3.754-2.173.262-.256a6.489,6.489,0,0,0,1.359-1.944,13.04,13.04,0,0,0,.871-6.269c-.489-5.836-3.947-12.68-8.567-17.02-1.474-1.366-4.42-3.743-7.72-4.249a6.837,6.837,0,0,0-2.906.136l-.456.149ZM26.345,86.078a.67.67,0,0,1-.433-1.167,8,8,0,0,0,.661-.648,7.406,7.406,0,0,0,1.45-2.646c1.057-3.281.318-7.081-.205-9.05A28.29,28.29,0,0,0,17.55,57.407,12.241,12.241,0,0,0,11.173,55a6.386,6.386,0,0,0-1.872.233l-.455.148a.663.663,0,0,1-.523-1.212l6.564-3.8.6-.217A8.4,8.4,0,0,1,19,49.967c3.647.562,6.855,3.123,8.419,4.6,4.943,4.618,8.47,11.644,8.982,17.884a14.014,14.014,0,0,1-.978,6.94,8.169,8.169,0,0,1-1.645,2.367l-.4.353-6.7,3.873a.65.65,0,0,1-.341.091" transform="translate(0.683 4.268)" fill="#c70211" fill-rule="evenodd"/><path d="M16.953,84.736C10.008,80.725,4.381,70.982,4.381,62.954s5.627-11.268,12.572-7.264S29.542,69.462,29.542,77.484s-5.648,11.263-12.589,7.252" transform="translate(0.375 4.62)" fill="#fff" fill-rule="evenodd"/><path d="M17.348,84.216c3.145,1.814,6.052,2.128,8.225.876,2.151-1.245,3.339-3.931,3.339-7.554,0-7.8-5.494-17.317-12.247-21.214-3.134-1.814-6.059-2.128-8.208-.882-2.173,1.252-3.362,3.936-3.362,7.566,0,7.8,5.494,17.3,12.253,21.207m5.278,2.969a12.11,12.11,0,0,1-5.961-1.814C9.548,81.263,3.757,71.228,3.757,63.008c0-4.124,1.434-7.224,4.016-8.72,2.605-1.5,6.008-1.183,9.575.882,7.11,4.107,12.907,14.141,12.907,22.368,0,4.123-1.417,7.218-4.021,8.714a7.066,7.066,0,0,1-3.607.933" transform="translate(0.322 4.567)" fill="#c70211" fill-rule="evenodd"/><path d="M49.963,29.374l7.093-4.091.512-.17a8.293,8.293,0,0,1,3.452-.17c3.191.5,6.361,2.594,8.681,4.773,4.944,4.625,8.887,12.012,9.455,18.8a14.51,14.51,0,0,1-1,7.111,8.163,8.163,0,0,1-1.621,2.333l-.4.358-7.092,4.095a8.073,8.073,0,0,0,.773-.757,8.468,8.468,0,0,0,1.695-3.106c1.019-3.162.644-7-.2-10.153-1.685-6.3-5.945-13-11.344-16.742a13.866,13.866,0,0,0-7.249-2.726,7.938,7.938,0,0,0-2.246.28Z" transform="translate(4.277 2.126)" fill="#fff" fill-rule="evenodd"/><path d="M53.241,28.333a14.9,14.9,0,0,1,7.151,2.827C65.642,34.8,70.2,41.512,72,48.272c.621,2.269,1.451,6.655.205,10.529a9.88,9.88,0,0,1-.562,1.416l4.2-2.429.284-.278a7.664,7.664,0,0,0,1.473-2.11,13.583,13.583,0,0,0,.922-6.775C78.021,42.316,74.3,34.937,69.3,30.256c-1.583-1.485-4.773-4.05-8.34-4.6a7.612,7.612,0,0,0-3.152.153l-.5.16ZM69.1,63.136a.678.678,0,0,1-.545-.279.671.671,0,0,1,.09-.893c.283-.256.5-.443.734-.694a8.571,8.571,0,0,0,1.57-2.873c1.131-3.555.337-7.651-.228-9.779-1.735-6.468-6.075-12.889-11.075-16.36a13.15,13.15,0,0,0-6.888-2.605,7.264,7.264,0,0,0-2.043.244l-.489.166a.653.653,0,0,1-.808-.365.664.664,0,0,1,.262-.853l7.093-4.089.643-.227a8.982,8.982,0,0,1,3.755-.194c3.924.6,7.344,3.357,9.038,4.944,5.308,4.971,9.1,12.519,9.665,19.233a15.174,15.174,0,0,1-1.058,7.452,8.409,8.409,0,0,1-1.768,2.532l-.416.376-7.2,4.174a.719.719,0,0,1-.335.092" transform="translate(4.225 2.073)" fill="#c70211" fill-rule="evenodd"/><path d="M58.976,61.749c-7.492-4.324-13.55-14.825-13.55-23.465s6.058-12.146,13.55-7.828c7.474,4.317,13.551,14.831,13.551,23.471s-6.076,12.14-13.551,7.823" transform="translate(3.889 2.448)" fill="#f89fb5" fill-rule="evenodd"/><path d="M52.97,29.326a6.3,6.3,0,0,0-3.192.813c-2.338,1.354-3.64,4.266-3.64,8.2,0,8.413,5.927,18.681,13.209,22.885,3.419,1.963,6.587,2.3,8.93.95s3.618-4.26,3.618-8.192c0-8.418-5.922-18.687-13.209-22.89a11.7,11.7,0,0,0-5.717-1.763m12.117,35a13.036,13.036,0,0,1-6.4-1.951c-7.662-4.415-13.869-15.2-13.869-24.04,0-4.431,1.531-7.753,4.3-9.357,2.753-1.6,6.4-1.264,10.229.949,7.662,4.421,13.891,15.211,13.891,24.051,0,4.426-1.531,7.748-4.3,9.348a7.638,7.638,0,0,1-3.852,1" transform="translate(3.837 2.395)" fill="#c70211" fill-rule="evenodd"/><path d="M5.146,55.243l7.1-4.091.506-.17A8.334,8.334,0,0,1,16.2,50.81c3.208.5,6.361,2.595,8.682,4.773,4.948,4.631,8.891,12.013,9.46,18.8a14.557,14.557,0,0,1-1,7.117,8.083,8.083,0,0,1-1.627,2.333l-.393.357-7.1,4.091a6.912,6.912,0,0,0,.773-.75,8.924,8.924,0,0,0,1.717-3.112c1-3.156.626-7-.2-10.154-1.7-6.3-5.968-13-11.366-16.736A13.842,13.842,0,0,0,7.9,54.8a7.929,7.929,0,0,0-2.224.279Z" transform="translate(0.441 4.341)" fill="#fff" fill-rule="evenodd"/><path d="M8.43,54.209A15.046,15.046,0,0,1,15.6,57.03c5.228,3.641,9.8,10.359,11.6,17.111.609,2.27,1.434,6.661.212,10.535a11.539,11.539,0,0,1-.586,1.411l4.209-2.424.279-.283a7.005,7.005,0,0,0,1.473-2.11,13.8,13.8,0,0,0,.944-6.775c-.523-6.3-4.244-13.687-9.244-18.369-1.587-1.48-4.778-4.05-8.322-4.6a7.623,7.623,0,0,0-3.174.148l-.49.166Zm15.848,34.8a.673.673,0,0,1-.545-.279.682.682,0,0,1,.1-.887,6.729,6.729,0,0,0,.734-.7,8.128,8.128,0,0,0,1.564-2.873c1.132-3.55.358-7.65-.221-9.779C24.163,68.021,19.823,61.6,14.823,58.129a13.119,13.119,0,0,0-6.888-2.605,7.138,7.138,0,0,0-2.037.25l-.472.16a.667.667,0,0,1-.546-1.212l7.076-4.1.637-.221a8.919,8.919,0,0,1,3.761-.2c3.924.6,7.362,3.357,9.039,4.943,5.325,4.972,9.113,12.521,9.665,19.233A15.053,15.053,0,0,1,34,81.832a8.3,8.3,0,0,1-1.758,2.532l-.432.376-7.19,4.175a.7.7,0,0,1-.342.091" transform="translate(0.389 4.288)" fill="#c70211" fill-rule="evenodd"/><path d="M14.16,87.618C6.684,83.294.609,72.8.609,64.152S6.684,52,14.16,56.325,27.709,71.155,27.709,79.8s-6.076,12.139-13.55,7.822" transform="translate(0.052 4.663)" fill="#f89fb5" fill-rule="evenodd"/><path d="M8.175,55.194a6.305,6.305,0,0,0-3.208.814c-2.344,1.354-3.624,4.266-3.624,8.2,0,8.413,5.922,18.681,13.21,22.885,3.395,1.963,6.57,2.3,8.907.95s3.64-4.261,3.64-8.192c0-8.412-5.945-18.68-13.226-22.89a11.589,11.589,0,0,0-5.7-1.764m12.095,35a12.953,12.953,0,0,1-6.4-1.951C6.229,83.831,0,73.046,0,64.205c0-4.426,1.531-7.748,4.307-9.358s6.411-1.263,10.246.956c7.644,4.42,13.89,15.2,13.89,24.044,0,4.433-1.53,7.749-4.306,9.347a7.653,7.653,0,0,1-3.868,1" transform="translate(0 4.61)" fill="#c70211" fill-rule="evenodd"/><path d="M53.021,15.476a14.25,14.25,0,0,0-3.094-5.99c5,1.12,8.419,5.6,8.965,12.692.04.654.073,6.558.073,7.258a26.045,26.045,0,0,1-.13,2.742v.063l-.244-.15a12.96,12.96,0,0,0-5.325-1.813c.757-3.38.547-11.275-.244-14.8" transform="translate(4.274 0.812)" fill="#ef496a" fill-rule="evenodd"/><path d="M54.116,29.751A13.571,13.571,0,0,1,58.3,31.195c.04-.556.04-1.1.04-1.707,0-.836-.017-6.6-.08-7.206-.415-5.632-2.73-9.671-6.411-11.405a18.157,18.157,0,0,1,1.866,4.471v.035a50.261,50.261,0,0,1,.4,14.369m4.716,3.2a.611.611,0,0,1-.284-.078l-.244-.15a12.357,12.357,0,0,0-5.034-1.728.644.644,0,0,1-.479-.267.7.7,0,0,1-.114-.541c.758-3.4.5-11.161-.261-14.489A13.089,13.089,0,0,0,49.491,10a.656.656,0,0,1-.131-.728.67.67,0,0,1,.621-.4c5.626,1.245,9.078,6.092,9.625,13.311.058.723.074,6.895.074,7.309a26.443,26.443,0,0,1-.131,2.805.7.7,0,0,1-.358.562.76.76,0,0,1-.358.091" transform="translate(4.221 0.759)" fill="#c70211" fill-rule="evenodd"/><path d="M40,2.23c5.04-1.872,9.455-2.451,14.364.119L59.654,5.4c-3.664-1.916-6.589-2.037-10.61-1.285C38.059,6.843,29.794,15.786,23.946,25.03c-4.567,7.645-7.435,14.989-8.362,23.9-.056,3.46-.262,7.1-.056,10.58a12.883,12.883,0,0,0-5.285-1.814c-.056-3.441-.056-6.781-.034-10.245.53-8.3,2.844-15.091,6.678-22.423C22.3,15.366,29.646,6.69,40,2.23" transform="translate(0.873 0.052)" fill="#ef496a" fill-rule="evenodd"/><path d="M10.957,57.149a13.045,13.045,0,0,1,3.908,1.269c-.075-2.173-.017-4.392.04-6.542.034-.978.051-1.952.073-2.907.871-8.435,3.476-15.888,8.436-24.226,7.435-11.725,16-18.859,25.513-21.224a19.887,19.887,0,0,1,5.4-.4l-.245-.136C49,.321,44.456,1.367,40.3,2.9,31.4,6.743,23.733,14.315,17.527,25.4c-4.135,7.93-6.115,14.557-6.6,22.14-.016,3.231,0,6.382.035,9.608m4.625,3.078a.7.7,0,0,1-.342-.091,12.211,12.211,0,0,0-5-1.723.688.688,0,0,1-.62-.66c-.039-3.441-.056-6.786-.039-10.251.511-7.821,2.532-14.613,6.775-22.737C22.715,13.393,30.6,5.628,39.8,1.669c0-.005.017-.005.035-.011,4.437-1.65,9.323-2.77,14.91.153l5.3,3.061a.688.688,0,0,1,.245.9.666.666,0,0,1-.888.272c-3.676-1.928-6.525-1.912-10.188-1.228C40.1,7.1,31.794,14.037,24.564,25.441c-4.87,8.146-7.413,15.433-8.266,23.6,0,.911-.039,1.884-.056,2.868-.075,2.519-.149,5.125,0,7.61a.665.665,0,0,1-.3.609.782.782,0,0,1-.358.1" transform="translate(0.82 -0.001)" fill="#c70211" fill-rule="evenodd"/><path d="M57.24,61.083c-6.775-3.914-12.271-13.425-12.271-21.258s5.5-11.007,12.271-7.087S69.52,46.173,69.52,54s-5.505,11-12.28,7.083" transform="translate(3.85 2.658)" fill="#f89fb5" fill-rule="evenodd"/><path d="M51.82,31.778a5.633,5.633,0,0,0-2.866.727c-2.1,1.218-3.266,3.834-3.266,7.372,0,7.6,5.357,16.878,11.945,20.683,3.055,1.764,5.906,2.071,8.022.86,2.093-1.212,3.242-3.829,3.242-7.367,0-7.606-5.357-16.883-11.945-20.688a10.477,10.477,0,0,0-5.132-1.587M62.782,63.491a11.886,11.886,0,0,1-5.83-1.775C50.005,57.705,44.346,47.9,44.346,39.878c0-4.033,1.4-7.065,3.947-8.526,2.526-1.469,5.848-1.161,9.341.859C64.581,36.226,70.24,46.028,70.24,54.053c0,4.033-1.4,7.06-3.926,8.521a6.992,6.992,0,0,1-3.533.916" transform="translate(3.797 2.605)" fill="#c70211" fill-rule="evenodd"/><path d="M56.986,57.04c-5-2.889-9.056-9.909-9.056-15.683s4.056-8.118,9.056-5.228,9.056,9.909,9.056,15.684-4.056,8.112-9.056,5.227" transform="translate(4.103 2.987)" fill="#ef496a" fill-rule="evenodd"/><path d="M57.379,56.513c2.208,1.268,4.244,1.5,5.734.632s2.321-2.737,2.321-5.28c0-5.552-3.926-12.326-8.737-15.108-2.185-1.268-4.227-1.5-5.717-.631-1.508.864-2.321,2.741-2.321,5.285,0,5.552,3.908,12.321,8.72,15.1M61.094,59a8.948,8.948,0,0,1-4.4-1.331c-5.171-2.985-9.375-10.279-9.375-16.257,0-3.043,1.053-5.33,2.98-6.44s4.431-.887,7.077.632c5.171,2.985,9.375,10.284,9.375,16.262,0,3.039-1.053,5.326-2.981,6.44A5.24,5.24,0,0,1,61.094,59" transform="translate(4.051 2.934)" fill="#c70211" fill-rule="evenodd"/><path d="M40.933,6.972c14.3-8.254,25.889-1.559,25.889,14.945L66.8,28.241a16.915,16.915,0,0,1-.1,1.69l-4.886,2.827a27.318,27.318,0,0,0,.13-2.805c0-.7-.033-6.6-.073-7.258-.928-11.906-9.944-16.451-20.946-10.1C29.756,19.048,20.626,34.386,19.943,47.48c-.016.512-.035,6.24-.035,6.741a22.974,22.974,0,0,0,.114,2.377l-.364.262-4.545,2.406c-.058-.721-.074-1.467-.074-2.229,0-.813.04-6.861.091-7.69,1.057-15.991,12.212-34.529,25.8-42.375" transform="translate(1.288 0.294)" fill="#f89fb5" fill-rule="evenodd"/><path d="M41.322,7.6C28.1,15.24,16.9,33.62,15.843,49.446c-.052.785-.092,6.678-.092,7.645,0,.386.017.768.04,1.143l3.584-1.893c-.058-.667-.074-1.355-.074-2.066,0-.392,0-6.234.034-6.774.684-13.364,10.041-28.921,21.309-35.434C46.3,8.807,51.68,8.215,55.834,10.4c3.907,2.065,6.3,6.434,6.758,12.3.056.723.073,6.895.073,7.309,0,.565,0,1.082-.034,1.595l3.51-2.02c.017-.456.058-.836.058-1.292l.016-6.319c0-7.731-2.588-13.477-7.265-16.179S48.022,3.738,41.322,7.606ZM15.166,59.986a.557.557,0,0,1-.319-.085.611.611,0,0,1-.341-.541c-.056-.734-.074-1.491-.074-2.27,0-.717.017-6.872.074-7.736C15.582,33.131,27.077,14.28,40.644,6.446c7.134-4.119,13.869-4.761,18.983-1.814,5.1,2.952,7.907,9.107,7.907,17.338V28.3c-.016.6-.056,1.086-.09,1.689a.786.786,0,0,1-.341.574l-4.91,2.828a.622.622,0,0,1-.676-.017.606.606,0,0,1-.3-.626c.074-.939.114-1.758.114-2.737,0-.836-.017-6.6-.079-7.206-.393-5.393-2.544-9.374-6.052-11.219-3.7-1.962-8.647-1.382-13.875,1.645-10.928,6.3-19.984,21.389-20.644,34.342-.04.478-.04,6.07-.04,6.706a22,22,0,0,0,.1,2.321.662.662,0,0,1-.284.6l-.358.255-4.6,2.458a.739.739,0,0,1-.325.074" transform="translate(1.236 0.24)" fill="#c70211" fill-rule="evenodd"/><path d="M13.231,82.845c-5.245-3.02-9.494-10.37-9.494-16.423s4.249-8.5,9.494-5.478c5.227,3.021,9.477,10.382,9.477,16.429s-4.25,8.5-9.477,5.473" transform="translate(0.32 5.106)" fill="#fff" fill-rule="evenodd"/><path d="M13.607,82.324c2.321,1.337,4.472,1.57,6.059.661,1.563-.905,2.429-2.884,2.429-5.558,0-5.825-4.112-12.936-9.153-15.854-2.315-1.336-4.449-1.57-6.035-.659-1.564.91-2.435,2.883-2.435,5.563,0,5.825,4.1,12.935,9.135,15.848m3.9,2.549a9.271,9.271,0,0,1-4.568-1.394c-5.415-3.123-9.812-10.751-9.812-17,0-3.18,1.1-5.563,3.117-6.724,2-1.159,4.619-.921,7.36.667,5.416,3.128,9.829,10.756,9.829,17.008,0,3.174-1.114,5.558-3.111,6.718a5.623,5.623,0,0,1-2.815.728" transform="translate(0.268 5.053)" fill="#c70211" fill-rule="evenodd"/></g></g></svg>