<?xml version="1.0" encoding="utf-8"?>
<!-- Generator: Adobe Illustrator 27.8.1, SVG Export Plug-In . SVG Version: 6.00 Build 0)  -->
<svg version="1.1" id="Layer_1" xmlns="http://www.w3.org/2000/svg" xmlns:xlink="http://www.w3.org/1999/xlink" x="0px" y="0px"
	 viewBox="0 0 186.1 90" style="enable-background:new 0 0 186.1 90;" xml:space="preserve">
<style type="text/css">
	.st0{fill:url(#unique_00000021803965515546987680000001387288691046667942_);}
	.st1{fill:none;stroke:#000000;stroke-width:9;stroke-miterlimit:10;}
</style>
<linearGradient id="unique_00000180331827972013093020000003936738935786568892_" gradientUnits="userSpaceOnUse" x1="-414.7038" y1="426.1802" x2="-415.7038" y2="425.3953" gradientTransform="matrix(186.0993 0 0 -89.9897 77371.5312 38357.5547)">
	<stop  offset="0" style="stop-color:#F8DAA3"/>
	<stop  offset="1" style="stop-color:#EF5353"/>
</linearGradient>
<path id="unique" style="fill:url(#unique_00000180331827972013093020000003936738935786568892_);" d="M100.9,89.7
	c-0.5-0.3-1-0.5-1.6-0.5c-0.5-0.2-1-0.4-1.5-0.6c-0.9-0.3-1.5-1.2-1.6-2.2c-0.1-0.5-0.2-1.1-0.3-1.7c0-0.7,0-1.4,0-2.1
	c0-0.4,0-0.8,0.1-1.2c0.2-0.4,0.2-0.9,0.1-1.3c0-1.4,0.2-2.8,0.5-4.2c0.2-0.5,0.2-1.1,0.3-1.7c0.2-1,0.4-2.1,0.7-3.2
	c0.1-0.3-0.1-0.4-0.3-0.3c-1.2,0.2-2.5,0-3.7-0.5c-1.8-0.9-3.5-1.9-5.2-3c-0.6-0.5-1.2-1.1-1.6-1.8c-0.3-0.4-0.5-0.9-0.7-1.3
	c-0.1,0.2-0.2,0.4-0.3,0.5c-0.7,1.3-1.6,2.5-2.4,3.7C83,69,82.8,69.6,82,70.1c-0.7,0.5-1.5,1.1-2.1,1.7c-1.1,1-2.7,1.3-4.1,0.9
	L75,72.4c-1.3-0.4-2.5-0.9-3.8-1.4c-1.9-0.8-3.2-2.7-3.4-4.8v-1.4c0-0.9,0.1-1.7,0.2-2.6c-0.1,0.1-0.2,0.2-0.3,0.3
	c-0.2,0.2-0.4,0.5-0.5,0.8c-0.6,0.8-1.2,1.5-1.8,2.2c-0.7,0.7-1.4,1.5-2,2.2c-0.5,0.5-1,1-1.6,1.5c-1.1,1.2-2.4,2.2-3.8,3l-0.1,0.1
	c-1.1,0.6-2.4,0.7-3.5,0.2c-1.7-0.8-3.2-1.7-4.7-2.6c-0.6-0.4-1-0.9-1.3-1.5c-0.2-0.3-0.3-0.7-0.3-1.1c0.1-1.5,0-3,0.2-4.5
	c0.1-1.4,0.3-2.8,0.7-4.1c0.5-1.7,1.1-3.6,1.7-5.3c0.2-0.8,0.5-1.6,1-2.4c0.1-0.3,0.2-0.5,0.3-0.8c0.2-1,0.6-2,1-2.9
	c0.3-0.5,0.3-1,0.6-1.7c0.6-1.8,1.3-3.5,2.1-5.1c0.3-0.8,0.6-1.5,1-2.3c0.3-0.4,0.5-0.9,0.4-1.4c-0.3,0-0.4,0.3-0.5,0.4
	c-0.4,0.4-0.8,0.9-1.1,1.4l-2.9,3.8c-0.6,0.6-1.1,1.3-1.5,2.1c-0.3,0.5-0.9,0.9-1.1,1.4c-0.2,0.4-0.5,0.7-0.9,1
	c0.2,0.5-0.2,0.9-0.4,1.2c-1,1.5-2.1,3-3,4.6c-1,1.5-2,3.1-2.9,4.7l-1,1.8C41.4,59.7,41,60,40.5,60c-0.1,0-0.3,0.1-0.3,0.2
	c0,0.1,0,0.2,0.1,0.2c0.2,0.4,0.2,0.8,0,1.1l-0.5,1c-1.1,2.1-2.1,4.3-2.9,6.6c-0.3,0.7-0.6,1.4-0.9,2.1l-0.6,1
	c-0.2,0.3-0.3,0.3-0.6,0.2c-0.1,0-0.3,0-0.4-0.1l-3.7-1.8l-0.8-0.5c-0.3-0.2-0.6-0.5-0.8-0.8c-0.5,0.3-1.1,0.5-1.7,0.6
	c-0.2,0.1-0.4,0-0.6,0c-0.1,0-0.2-0.1-0.3-0.1c-1.8-0.7-3.6-1.7-5.4-2.5c-0.3-0.2-0.6-0.5-0.9-0.8c-1.3-1.3-2.1-3-2.2-4.9
	c0-0.1-0.1-0.3-0.2-0.3l-0.3,0.3c-0.4,0.7-0.9,1.4-1.4,2c-0.2,0.1-0.3,0.3-0.3,0.5c-0.7,1.6-2.5,3-3.7,4.3c-0.3,0.3-0.5,0.3-0.7,0.4
	c-0.8-0.4-0.8,0.2-0.9,0.6c0,0.4-0.4,0.7-0.9,0.7c0,0,0,0,0,0c-0.3,0-0.6-0.1-0.9-0.2c-2-0.4-3.9-1-5.7-1.9c-1.4-0.7-3-1.7-3.2-3.3
	C0,63.4,0,62.1,0.2,60.9l0.3-3.3c0.1-1.4,0.6-2.8,0.8-4.2c0.1-0.2,0.2-0.5,0.2-0.7c0.2-0.9,0.4-1.7,0.4-2.6c0-0.6,0.1-1.2,0.3-1.8
	c0.5-2.7,1.3-5.5,1.9-8.3c0.5-1.6,1-3.2,1.3-4.9c0.2-1.2,1.4-5,1.7-6.3l1.5-5.6c0-0.2,0.5-0.3,0.5-0.6c0.2-0.3,0.6-0.4,1-0.3
	c0.3,0.2,0.6,0.3,0.7,0.5c0.4,0.5,1.1,0.9,1.7,0.9c0.3,0.1,0.6,0.2,0.9,0.4c0.3,0.3,0.6,0.6,1,0.7c0.3,0.2,0.6,0.4,0.9,0.7
	c0.3,0.2,0.3,0.4,0.3,0.8c-0.2,0.7-0.3,1.4-0.3,2.1l-1.5,5c-0.1,0.1-0.1,0.3-0.2,0.4c-0.6,0.3-0.3,0.9-0.4,1.4
	c-0.1,0.8-0.2,1.6-0.4,2.4c-0.2,0.6-0.8,1.1-0.8,1.7c0,0.4-0.2,0.8-0.2,1.2c-0.3,1.2-0.4,2.4-0.8,3.7c0,0.3-0.3,0.6-0.3,0.9
	c-0.2,0.9-0.4,1.8-0.5,2.7c0,0.6-0.1,1.2-0.3,1.7c-0.5,2-0.9,4.1-1.2,6.2l-0.3,0.9c0,0.4-0.3,3-0.1,3.4c0.9-1.2,1.8-2.4,2.5-3.7
	c0.9-1.4,2-2.7,3.1-3.8c0.3-1.4,1.2-2.5,1.7-3.8c0.3-0.6,0.5-1.2,0.9-1.8c0.7-1.3,1-2.8,1.7-4.2c0.4-1,0.6-2.2,1-3.1
	c0.6-1.3,1-2.7,1.5-4c0.7-1.7,2.1-6,2.7-7.7c0.4-1.1,0.9-2.2,1.2-3.3c0.4-0.7,0.8-1.4,1.3-2.1c0.2-0.2,0.6-0.3,0.9-0.1
	c1.4,0.8,2.6,1.7,3.8,2.8c0.4,0.4,1,0.8,1.5,1.2c0.2,0.2,0.4,0.5,0.3,0.8c0,0.9-0.2,1.8-0.5,2.7c-0.4,1.3-1.3,5.4-1.9,6.7
	c-0.2,1-0.5,2-1,2.9l-0.5,0.8c-0.2,0.2-0.3,0.5-0.1,0.8c0.2,0.2,0.3,0.6,0.2,0.9c-0.3,1.1-0.6,2.3-1,3.3c-0.3,1.3-0.5,2.7-1,4
	c-0.1,0.4-0.2,0.8-0.3,1.1c-0.2,0.5-0.3,1-0.3,1.6v0.5c-0.3,1-0.5,2.1-0.4,3.2c0.1,0.6,0,1.1-0.2,1.7c0,0.1-0.1,0.2-0.1,0.3
	l-0.1,4.6c0.3,0,0.4-0.3,0.5-0.4c1.3-1.9,2.6-3.8,3.7-5.8c0.7-1.1,1.3-2.2,1.8-3.3c0.4-0.8,0.8-1.6,1.1-2.4c0.1-0.2,0.2-0.3,0.3-0.4
	c0.3-0.4,0.5-0.8,0.7-1.2c0.3-0.8,0.5-1.5,0.9-2.3c0.2-0.5,0.8-0.8,1.3-0.6c0,0,0.1,0,0.1,0.1c0.2-0.2,0.3-0.4,0.4-0.7
	c0.2-0.5,0.1-1,0.3-1.6c0.7-1.8,1.3-3.7,1.8-5.4l1.3-4.4c0.3-1,0.7-2.1,1-3.1c0.3-0.9,0.5-1.8,0.8-2.7c0.3-1.6,0.6-3.1,1-4.7
	c0.2-1,0.3-2.1,0.6-3.1c0-0.2,0.2-0.5,0.3-0.6c0.2-0.1,0.3-0.3,0.5,0c0.1,0.2,0.4,0.4,0.6,0.3c0.5,0,0.9,0.2,1.2,0.5
	c0.3,0.3,0.5,0.6,0.8,0.9c0.6,0.6,1.1,1.4,1.8,2c0.2,0.3,0.4,0.6,0.3,1c0,0.7-0.1,1.4-0.3,2c-0.1,0.3-0.2,0.6-0.3,0.9
	c-0.2,2.2-0.5,4.4-1.1,6.5c-0.3,1.3-0.7,2.6-1.1,3.8c-0.2,0.5-0.2,1.1-0.1,1.7c0.3-0.2,0.3-0.3,0.4-0.5c1-1.5,2.2-2.7,3.1-4.2
	c0.7-0.9,1.4-1.8,2.2-2.7c1.3-1.6,2.6-3.1,4.1-4.5c0.2-0.2,0.4-0.4,0.6-0.6c0.5-0.3,0.9-0.6,1.2-1c0.8-0.8,1.6-1.5,2.5-2.1
	c1-0.6,1.9-1.3,2.8-2.1c0.4-0.5,1.1-0.6,1.6-0.2c0.1,0.1,0.2,0.1,0.2,0.2c1.7,1.5,3.3,3,4.9,4.5c0.2,0.3,0.3,0.6,0.3,1
	c0.1,0.6-0.1,1.2-0.3,1.7c-0.1,0.1-0.3,0.3-0.3,0.3c-0.1,0.9-0.4,1.8-0.8,2.7c-0.4,1.5-1,3-1.9,4.3c-0.3,0.4-0.6,0.9-0.7,1.5
	c-0.3,0.8-0.6,1.6-1,2.3c-0.2,0.3-0.3,0.6-0.4,1c-0.3,0.6-0.5,1.2-0.9,1.7c-0.6,1.1-1.2,2.2-1.7,3.4c-0.5,1-0.9,2.3-1.4,3.5
	c-0.7,1.6-1.2,3.2-1.9,4.9c-0.3,0.8-0.6,1.7-0.9,2.5c-0.2,0.4-0.4,0.8-0.6,1.2c-0.2,0.6-0.4,1.1-0.5,1.7c-0.2,0.9-0.4,1.7-0.7,2.5
	c-0.2,0.7-0.4,1.5-0.4,2.3l0.1,0.1c0.1,0,0.2,0.1,0.3,0c0.7-0.4,1.3-0.9,1.7-1.6l1.7-1.9l2.3-2.6c0.2-0.2,0.4-0.4,0.7-0.6
	c0.1-0.1,0.3-0.3,0.3-0.4c0.3-0.7,0.7-1.4,1.2-1.9c1-1.4,1.9-3,2.9-4.4c1.6-2.3,2.9-4.9,4.4-7.1c0.5-0.7,0.9-1.5,1.3-2.2
	c0.4-0.6,0.5-0.7,1.2-0.4l0,0c0.4-1.4,0.8-2.8,1.2-4.3c0.5-2,1.3-4,1.7-6c0.3-1.4,0.8-2.7,1.1-4.1c0.1-0.8,0.2-1.6,0.4-2.3l0.5-1.7
	l0.3-1.4c0.1-0.3,0.5-0.3,0.7-0.2c0.5,0.6,1.1,1.2,1.8,1.6c0.6,0.4,1.2,0.9,1.7,1.5c0.5,0.6,1.2,1,1.7,1.7c0.2,0.3,0.2,0.6,0.2,1
	c-0.2,1-0.5,2.1-0.9,3c0,0-0.1,0.1-0.1,0.2c0.1,1.4-0.6,2.7-0.9,4s-0.5,2.7-0.9,3.9l-1.3,5c-0.2,1-0.5,2-0.8,3
	c-0.2,0.6-0.3,1.2-0.4,1.7c-0.3,1.4-0.6,2.7-0.9,4.1c-0.3,0.9-1,1.8-1,2.8c0,0.3-0.1,0.7-0.3,1c-0.3,0.8-0.5,1.7-0.6,2.6
	c-0.2,1.1-0.6,2.3-0.8,3.4c-0.3,1.4-0.6,2.8-0.7,4.2c0,0.1,0,0.2,0.1,0.3h0.3c0.8-0.6,1.5-1.3,2.1-2.1c1.1-1.4,2-2.8,2.9-4.3
	c0.3-0.5,0.5-1.1,0.9-1.7c0.2-0.4,0.4-0.7,0.8-1c0.3-0.1,0.4-0.4,0.4-0.7c0.3-1,0.7-2,1.3-2.9c1.2-2.4,1.9-4.4,3.1-6.5
	c0.6-0.7,0.7-1.6,1.2-2.3c0.1-0.2,0.3-0.2,0.5-0.2l0.4-1.3c0.3-0.7,0.6-1.4,1-2.1c0.2-0.3,0.3-0.6,0.3-0.9c0.4-1.2,0.9-2.3,1.6-3.4
	c0.8-1.4,1.7-2.9,2.5-4.3s1.9-2.8,2.8-4.3l2-2.4l0.6-0.6c0.2-0.1,0.4-0.2,0.5-0.3c0.7-1,1.6-1.9,2.7-2.5c1.3-1.1,3-1.7,4.7-1.7
	c1.5,0,2.9,0.6,3.9,1.7c1.2,1.2,2.4,2.4,3.5,3.7c0.5,0.4,0.9,0.8,1.2,1.3c0.8,1,1.3,2.2,1.3,3.5c0,0.8,0,1.7-0.2,2.5
	c-0.1,0.7-0.2,1.4-0.2,2.1c-0.1,0.4-0.4,0.6-0.8,0.5c-0.3-0.1-0.6-0.2-0.9-0.3l-2.9-2.4c-0.8-0.6-1.3-1.6-1.1-2.6
	c0-0.6,0.1-1.2,0.3-1.8c0-0.3,0-0.6,0-0.9c0.1-1.9,0.1-1.8-1.7-1.1c-1,0.4-1.9,1-2.7,1.7c-1,1-2.1,2.1-3.1,3.2
	c-0.5,0.5-1,1.1-1.4,1.7c-0.9,1.3-1.7,2.6-2.5,3.8c-0.3,0.5-0.7,1-1.1,1.5c-0.4,0.4-0.7,0.9-0.9,1.5c-0.2,0.7-0.5,1.3-0.9,1.9
	c-0.7,1.3-1.4,2.6-1.9,3.9l-0.3,0.5c-0.2,0.2-0.3,0.4-0.4,0.6c-0.3,0.4-0.1,1-0.3,1.5c-0.3,0.4-0.4,0.9-0.4,1.4
	c-0.1,0.5-0.2,1-0.3,1.5c-0.4,1.3-0.7,2.6-1,3.9c-0.2,1-0.4,2-0.7,3c-0.1,0.4-0.1,0.8-0.1,1.2v4.8c0,0.1,0.1,0.3,0.2,0.3
	c0.1,0,0.2,0,0.2-0.1c1.2-0.8,2.2-1.7,3-2.8c1.7-2.2,3.2-4.6,4.4-7.1c1.2-2.3,2.2-4.5,3.5-6.7c0.6-1.1,1-2.4,1.6-3.6
	c0.6-1,1.1-2.2,1.7-3.3c0.3-0.4,0.3-1,0.6-1.4c0.1-0.2,0.3-0.3,0.5-0.3c0.1,0,0.1,0,0.1,0.1l0.3,0.3c0.5,0.7,1.1,1.2,1.9,1.5
	c0.2,0,0.3,0.2,0.4,0.3c0.8,0.8,1.6,1.5,2.5,2.2c0.3,0.3,0.5,0.7,0.3,1.1c0,0.2-0.1,0.3-0.1,0.5l-2.6,8.9c-0.2,0.5-0.3,1.1-0.3,1.7
	c-0.4,1.6-1,3.1-1.6,4.7c-0.3,0.8-0.5,1.6-0.9,2.3c-0.1,0.1-0.2,0.2-0.2,0.3c-0.3,1.4-0.6,2.7-1,4c-0.3,1.6-0.9,3-1.2,4.5l-0.8,2.7
	c0,0.1,0,0.2-0.1,0.3c-0.5,1.2-0.9,2.4-1,3.7c-0.1,0.3-0.1,0.5-0.1,0.8c0,0.3,0,0.6-0.1,0.9c-0.4,1.2-0.2,2.5-0.3,3.7
	c0,0.6-0.1,1.3-0.3,1.9c-0.1,0.3-0.1,0.6,0,0.9c0.3,0.6-0.1,1.3,0.1,1.9c0.1,0.3-0.2,0.7-0.3,1c0,0.1-0.2,0.2-0.3,0.2
	c-0.2,0-0.4,0.1-0.7,0.1C101.5,90,101.2,89.9,100.9,89.7z M45.2,39L45.2,39C45.2,39,45.2,39,45.2,39L45.2,39z M57.1,36.8
	c0.1,0,0.2,0,0.1-0.2L57.1,36.8z M161.3,71.8c-1-0.2-1.9-0.5-2.9-0.9c-1.7-0.8-3.4-1.6-5-2.4c-1.2-0.6-2.3-1.6-3-2.8
	c-0.4-0.6-0.7-1.1-1-1.7c-0.6,0.9-1.2,1.8-1.9,2.7l-0.9,1.1c-0.9,1.1-2.1,1.8-3.5,2c-0.2,0.1-0.4,0-0.6,0c-0.1,0-0.2-0.1-0.3-0.1
	c-1.8-0.7-3.6-1.7-5.4-2.5c-0.3-0.2-0.6-0.5-0.9-0.8c-1.3-1.3-2.1-3-2.2-4.9c0-0.1-0.1-0.3-0.2-0.3l-0.3,0.3c-0.4,0.7-0.9,1.4-1.4,2
	c-0.2,0.1-0.3,0.3-0.3,0.5c-0.7,1.6-2.5,3-3.7,4.3c-0.3,0.3-0.5,0.3-0.7,0.4c-0.8-0.4-0.8,0.2-0.9,0.6c0,0.4-0.4,0.7-0.9,0.7
	c0,0,0,0,0,0c-0.3,0-0.6-0.1-0.9-0.2c-2-0.4-3.9-1-5.7-1.9c-1.4-0.7-3-1.7-3.2-3.3c-0.1-1.2-0.1-2.5,0.1-3.7l0.3-3.3
	c0.1-1.4,0.6-2.8,0.8-4.2c0.1-0.2,0.2-0.5,0.2-0.7c0.2-0.9,0.4-1.7,0.4-2.6c0-0.6,0.1-1.2,0.3-1.8c0.5-2.7,1.3-5.5,1.9-8.3
	c0.5-1.6,1-3.2,1.3-4.9c0.2-1.2,1.4-5,1.7-6.3l1.5-5.6c0-0.2,0.5-0.3,0.5-0.6c0.2-0.3,0.6-0.4,1-0.3c0.3,0.2,0.6,0.3,0.7,0.5
	c0.4,0.5,1.1,0.9,1.7,0.9c0.3,0.1,0.6,0.2,0.9,0.4c0.3,0.3,0.6,0.6,1,0.7c0.3,0.2,0.6,0.4,0.9,0.7c0.3,0.2,0.3,0.4,0.3,0.8
	c-0.2,0.7-0.3,1.4-0.3,2.1l-1.5,5c-0.1,0.1-0.1,0.3-0.2,0.4c-0.6,0.3-0.3,0.9-0.4,1.4c-0.1,0.8-0.2,1.6-0.4,2.4
	c-0.2,0.6-0.8,1.1-0.8,1.7c0,0.4-0.2,0.8-0.2,1.2c-0.3,1.2-0.4,2.4-0.8,3.7c0,0.3-0.3,0.6-0.3,0.9c-0.2,0.9-0.4,1.8-0.5,2.7
	c0,0.6-0.1,1.2-0.3,1.7c-0.5,2-0.9,4.1-1.2,6.2l-0.3,0.9c0,0.4-0.3,3-0.1,3.4c0.9-1.2,1.8-2.4,2.5-3.7c0.9-1.4,2-2.7,3.1-3.8
	c0.3-1.4,1.2-2.5,1.7-3.8c0.3-0.6,0.5-1.2,0.9-1.8c0.7-1.3,1-2.8,1.7-4.2c0.4-1,0.6-2.2,1-3.1c0.6-1.3,1-2.7,1.5-4
	c0.7-1.7,2.1-6,2.7-7.7c0.4-1.1,0.9-2.2,1.2-3.3c0.4-0.7,0.8-1.4,1.3-2.1c0.2-0.2,0.6-0.3,0.9-0.1c1.4,0.8,2.6,1.7,3.8,2.8
	c0.4,0.4,1,0.8,1.5,1.2c0.2,0.2,0.4,0.5,0.3,0.8c0,0.9-0.2,1.8-0.5,2.7c-0.4,1.3-1.3,5.4-1.9,6.7c-0.2,1-0.5,2-1,2.9l-0.5,0.8
	c-0.2,0.2-0.3,0.5-0.1,0.8c0.2,0.2,0.3,0.6,0.2,0.9c-0.3,1.1-0.6,2.3-1,3.3c-0.3,1.3-0.5,2.7-1,4c-0.1,0.4-0.2,0.8-0.3,1.1
	c-0.2,0.5-0.3,1-0.3,1.6v0.5c-0.3,1-0.5,2.1-0.4,3.2c0.1,0.6,0,1.1-0.2,1.7c0,0.1-0.1,0.2-0.1,0.3l-0.1,4.6c0.3,0,0.4-0.3,0.5-0.4
	c1.3-1.9,2.6-3.8,3.7-5.8c0.7-1.1,1.3-2.2,1.8-3.3c0.4-0.8,0.8-1.6,1.1-2.4c0.1-0.2,0.2-0.3,0.3-0.4c0.3-0.4,0.5-0.8,0.7-1.2
	c0.3-0.8,0.5-1.5,0.9-2.3c0.2-0.5,0.7-0.8,1.3-0.6c0.1-0.4,0.3-0.8,0.5-1.2c0.1-0.2,0.2-0.4,0.2-0.6c0.4-1.9,1-3.8,1.8-5.7
	c0.8-2.3,2-4.6,3-6.9c0.2-0.3,0.4-0.6,0.6-0.9c0.4-0.4,0.6-0.9,0.7-1.4c0-0.3,0.3-0.5,0.4-0.8c0.8-1,1.5-2,2.2-3l0.2-0.3
	c1-1.1,2.3-2.1,3.7-2.8c1.2-0.4,2.5-0.4,3.7,0.2c0.7,0.4,1.4,0.8,2.1,1.4c1.5,1.2,2.9,2.5,4.3,3.7c0.9,0.7,1.5,1.7,1.5,2.9v0.3
	c0.6,1.4,0.1,2.7,0,4c-0.5,1.1-0.6,2.4-1.3,3.5c-0.6,0.9-1.1,1.9-1.5,3c-0.3,0.6-0.6,1.2-1,1.7c-0.3,0.4-0.6,0.7-0.8,1.1
	c-0.2,0.6-0.6,1.1-1,1.5c-0.7,0.9-1.3,1.7-2.1,2.6c-0.6,0.7-1.2,1.3-1.9,1.8c-0.3,0.1-0.4,0.3-0.5,0.5c-0.6,0.6-1.2,1.2-1.9,1.7
	c-0.3,0.2-0.6,0.2-0.9,0.1c-1.5-0.6-2.9-1.4-4.3-2.2c-0.3-0.1-0.4-0.3-0.7-0.3c-0.1,0-0.3,0-0.3,0.2c-0.2,0.5-0.3,0.9-0.4,1.4
	c-0.1,0.6-0.2,1.1-0.4,1.7c-0.3,0.9-0.4,1.8-0.4,2.8c-0.1,0.9-0.3,1.9-0.5,2.8c-0.2,1-0.4,2-0.3,3v1.6c0,1-0.1,1.9,0,2.9
	c0.2,1.6,0.4,1.7,2,1.3c0.7-0.2,1.4-0.5,2.1-0.9l1.3-0.8c0.3-0.2,0.7-0.4,1-0.7c0.8-0.9,1.7-1.7,2.6-2.4c1-0.9,1.9-1.8,2.8-2.8
	c0.7-0.8,1.4-1.6,2-2.5c0.8-0.9,1.6-1.7,2.3-2.6c0.6-0.9,1.2-1.8,1.9-2.6c0.4-0.5,0.8-1,1.1-1.6c1-1.5,1.9-2.6,3-4
	c0.8-1,1.7-2.4,2.4-3.6c0.3-0.4,0.5-0.4,1-0.1c0.2,0.1,0.4,0.2,0.6,0.4c0.5,0.4,1,0.7,1.5,1c0.7,0.4,0.9,0.6,1.7,1.1
	c0.4,0.2,0.8,0.5,1.1,0.9c0.3,0.2,0.3,0.3,0,0.6c-0.4,0.5-0.5,1.2-1,1.7c-0.3,0.2-0.4,0.7-0.6,0.8c-0.3,0.3-0.3,0.8-0.6,1.3
	c-0.2,0.5-0.4,0.9-0.8,1.2l-0.3,0.3c-0.7,1.4-1.6,2.7-2.7,3.8c-0.3,0.9-0.8,1.7-1.5,2.4c-1,1.1-1.7,2.3-2.7,3.4
	c-0.3,0.3-0.6,0.6-1,0.9c-0.3,0.2-0.7,0.2-1,0.4c-0.2,0.2-0.2,0.6-0.4,0.8c-0.5,0.2-0.7,0.7-0.7,1.2c0,0.2-0.2,0.4-0.3,0.4
	c-1.7,1.7-3.4,3.4-5.3,4.9c-1.1,0.8-2.3,1.4-3.7,1.7c-0.3,0.1-0.7,0.2-1.1,0.2C162,71.9,161.7,71.9,161.3,71.8L161.3,71.8z
	 M165.5,31.5c-1.5,2.3-2.8,4.8-4,7.3c-0.3,0.8-0.7,1.5-1,2.2c-0.3,0.8-0.5,1.7-0.9,2.6c-0.1,0.6-0.4,1.2-0.6,1.8
	c-0.1,0.1-0.3,0.6-0.2,0.7c0.2,0.2,0.6-0.2,0.8-0.3c0,0,0.1,0,0.1-0.1c0,0,0,0,0,0c1.6-1.5,3.5-2.5,4.5-4.4l0.5-0.8
	c0.9-1.2,1.6-2.4,2.2-3.7c0.4-0.9,0.9-1.7,1.4-2.5c1-2,1.6-4.1,1.7-6.3c0,0-0.2-0.3-0.3-0.3c-0.1-0.1-0.2,0-0.3,0h-0.2
	C167.8,28.7,166.5,30,165.5,31.5L165.5,31.5z M85.7,14.8c-0.6-0.3-1.2-0.7-1.8-1.1c-0.3-0.1-0.7-0.2-1-0.4c-0.9-0.7-1.7-1.5-2.4-2.4
	c-0.6-0.7-0.8-1.7-0.4-2.5c0.1-0.4,0.2-0.8,0.4-1.1c1-1.7,2.1-3.4,3.3-5c0.6-0.8,1.2-1.5,1.8-2.2c0.2-0.2,0.4-0.2,0.5,0
	c0.2,0.4,0.6,0.8,1,1c0.4,0.2,0.8,0.5,1,1c0.6,0.9,1.2,1.7,1.9,2.5c0.3,0.4,0.4,0.8,0.5,1.2c-0.2,0.4-0.4,0.8-0.8,1
	c-0.3,0.4-0.6,0.8-0.8,1.3c-0.2,0.4-0.4,0.8-0.7,1.1c-0.7,1-1.4,1.9-2.1,3c-0.4,0.6,0.3,2.6-0.4,2.6C85.8,14.9,85.8,14.9,85.7,14.8
	L85.7,14.8z"/>
<path id="unqiue-mask" class="st1" d="M12.5,22.4C9,38.1,5.8,53,4.4,57.6c-0.3,0.8-1.1,3.2-0.1,5.5c0.6,1.5,1.8,2.4,3.5,2.7
	c2.6,0.4,3.3-2.4,5.6-6.1C21.3,46.8,28.9,26.3,28,26.1c-1-0.2-5.2,23.7-6.2,32.3c-0.2,2-0.7,5.8,1.5,7.5c1.8,1.4,2.8-0.1,4.9-1.5
	c2-1.3,2.6-1.5,5.5-7.5c1.3-2.6,1.9-3.9,2.5-5.2c4.4-8.8,9.2-28.3,8.6-28.4C44,23.2,30,68.4,32.6,69.4c1.3,0.5,11.2-23.7,19-32.7
	c4.7-5.4,12-12.6,13.2-11.7c2.1,1.6-10.5,28.4-13,35.5c-0.2,0.4-0.7,2.1-0.5,4.3c0.1,1,0.3,2.4,1.4,3.5c1.2,1.1,3.2,0.4,4.2-0.1
	c2.6-1.4,4.7-3.4,5.3-4.9c6.9-15.9,9.9-11.5,18.2-36.3C84.7,14.1,87.6,5,85.5,4.2c-0.2-0.1-12.4,57.2-13.6,60
	c-0.1,0.1-0.4,0.9-0.4,1.9c0,0.3,0,1.1,0.5,2c0.6,1,1.5,1.5,1.8,1.6c1.2,0.6,2.4,0.4,2.9,0.4c1.1-0.2,2-1.3,3.5-3.1
	c2.2-2.5,3.8-4.8,4.7-7.1c1.2-3.4,2.5-2.2,4.8-8.5c2.8-7.5,5.7-13.5,9-19c0.4-0.7,1.4-2.4,3-4c0.7-0.7,1.4-2.2,3.2-3.1
	c1.4-0.7,4.6-2.5,6.9-1.5c3.9,1.6,3.2,10.2,4,10.2c0.7,0,2.7-6.7-0.3-9.6c-3.2-3.2-10.8-0.6-15,2c-13.3,8-14.2,30-10.4,39.6
	c0.4,1.1,3.2,4.3,5.4,3c4.1-2.3,13-24.3,13.3-24.2c0.1,0-0.4,1.5-0.4,1.5c-0.5,1.3-3,10.4-8,28.4c-0.8,2.8-1.9,7.2-0.9,12.4
	c0.3,1.4,0.7,3.5,1.3,3.5c2.4,0,0.6-42.1,18.2-70.7c1.4-2.3,7.2-11.7,10-10.7c2.3,0.8,1.8,7.8,1.8,8.3c-0.4,5-2.5,8.5-2.9,9.5
	c-6.6,16-8.9,31.3-7.7,37.1c0.2,0.9,1.2,1.3,2.9,1.8c1.7,0.5,1.7-0.4,2.1-0.7c2.8-2.1,4.2-5.7,4.6-6.6c6-14.9,13.3-33.1,14.2-32.9
	c0.4,0.1-1.3,6.6-2,10.3c-0.7,3.4-2.5,11.5-3.8,18.4c0,0-0.4,2.2-0.1,7.8c0.1,1.8,0.3,3,1.1,3.8c1.3,1.2,4.2,1.3,4.4,0.5
	c2.3-8.8,10.5-16.7,23.5-20.3c0,0,5.3-11,6.2-15.4c0.2-1.1,0.4-2.4-0.3-3.6c-0.7-1.3-1.8-1.9-2-2c-0.7-0.4-1.4-0.4-2.1-0.5
	c-0.8-0.1-2.1,0.3-3.6,0.8c-0.4,0.2-1.9,1.3-3.7,4c-1.2,1.9-2.1,3.3-3,5.8c-1.7,5.1-1.4,3.3-2.7,7.2c-0.6,1.9-2,1.8-3.8,8.7
	c-1.4,5.2,0.5,5.7,0.4,7.2c-0.2,2.7-1,5,0.3,7.3c0.3,0.5,1.3,2.2,3.4,3.1c2.8,1.3,5.6,0.4,6.6,0c2.5-0.8,4.3-2.4,7.3-6.1
	c3.4-4.3,5.3-7.9,6.6-10.2c1.8-3.2,4.5-7.7,8.3-13"/>
</svg>
